<svg xmlns="http://www.w3.org/2000/svg" width="860" height="100" viewBox="0 0 860 100">
<defs>
  <style>
    .ft{animation:fg 3s ease-in-out infinite;}
    @keyframes fg{
      0%,100%{filter:drop-shadow(0 0 3px #00ff41) drop-shadow(0 0 5px #00ff41);}
      50%{filter:drop-shadow(0 0 8px #00ff41) drop-shadow(0 0 16px #00ff41);}
    }
    .fc{animation:fc 1s steps(1) 0.5s infinite;}
    @keyframes fc{0%,49%{opacity:1;}50%,100%{opacity:0;}}
  </style>
</defs>

<rect width="860" height="100" fill="#050a05"/>
<rect x="0" y="0" width="860" height="1" fill="#000" opacity="0.07"/><rect x="0" y="2" width="860" height="1" fill="#000" opacity="0.07"/><rect x="0" y="4" width="860" height="1" fill="#000" opacity="0.07"/><rect x="0" y="6" width="860" height="1" fill="#000" opacity="0.07"/><rect x="0" y="8" width="860" height="1" fill="#000" opacity="0.07"/><rect x="0" y="10" width="860" height="1" fill="#000" opacity="0.07"/><rect x="0" y="12" width="860" height="1" fill="#000" opacity="0.07"/><rect x="0" y="14" width="860" height="1" fill="#000" opacity="0.07"/><rect x="0" y="16" width="860" height="1" fill="#000" opacity="0.07"/><rect x="0" y="18" width="860" height="1" fill="#000" opacity="0.07"/><rect x="0" y="20" width="860" height="1" fill="#000" opacity="0.07"/><rect x="0" y="22" width="860" height="1" fill="#000" opacity="0.07"/><rect x="0" y="24" width="860" height="1" fill="#000" opacity="0.07"/><rect x="0" y="26" width="860" height="1" fill="#000" opacity="0.07"/><rect x="0" y="28" width="860" height="1" fill="#000" opacity="0.07"/><rect x="0" y="30" width="860" height="1" fill="#000" opacity="0.07"/><rect x="0" y="32" width="860" height="1" fill="#000" opacity="0.07"/><rect x="0" y="34" width="860" height="1" fill="#000" opacity="0.07"/><rect x="0" y="36" width="860" height="1" fill="#000" opacity="0.07"/><rect x="0" y="38" width="860" height="1" fill="#000" opacity="0.07"/><rect x="0" y="40" width="860" height="1" fill="#000" opacity="0.07"/><rect x="0" y="42" width="860" height="1" fill="#000" opacity="0.07"/><rect x="0" y="44" width="860" height="1" fill="#000" opacity="0.07"/><rect x="0" y="46" width="860" height="1" fill="#000" opacity="0.07"/><rect x="0" y="48" width="860" height="1" fill="#000" opacity="0.07"/><rect x="0" y="50" width="860" height="1" fill="#000" opacity="0.07"/><rect x="0" y="52" width="860" height="1" fill="#000" opacity="0.07"/><rect x="0" y="54" width="860" height="1" fill="#000" opacity="0.07"/><rect x="0" y="56" width="860" height="1" fill="#000" opacity="0.07"/><rect x="0" y="58" width="860" height="1" fill="#000" opacity="0.07"/><rect x="0" y="60" width="860" height="1" fill="#000" opacity="0.07"/><rect x="0" y="62" width="860" height="1" fill="#000" opacity="0.07"/><rect x="0" y="64" width="860" height="1" fill="#000" opacity="0.07"/><rect x="0" y="66" width="860" height="1" fill="#000" opacity="0.07"/><rect x="0" y="68" width="860" height="1" fill="#000" opacity="0.07"/><rect x="0" y="70" width="860" height="1" fill="#000" opacity="0.07"/><rect x="0" y="72" width="860" height="1" fill="#000" opacity="0.07"/><rect x="0" y="74" width="860" height="1" fill="#000" opacity="0.07"/><rect x="0" y="76" width="860" height="1" fill="#000" opacity="0.07"/><rect x="0" y="78" width="860" height="1" fill="#000" opacity="0.07"/><rect x="0" y="80" width="860" height="1" fill="#000" opacity="0.07"/><rect x="0" y="82" width="860" height="1" fill="#000" opacity="0.07"/><rect x="0" y="84" width="860" height="1" fill="#000" opacity="0.07"/><rect x="0" y="86" width="860" height="1" fill="#000" opacity="0.07"/><rect x="0" y="88" width="860" height="1" fill="#000" opacity="0.07"/><rect x="0" y="90" width="860" height="1" fill="#000" opacity="0.07"/><rect x="0" y="92" width="860" height="1" fill="#000" opacity="0.07"/><rect x="0" y="94" width="860" height="1" fill="#000" opacity="0.07"/><rect x="0" y="96" width="860" height="1" fill="#000" opacity="0.07"/><rect x="0" y="98" width="860" height="1" fill="#000" opacity="0.07"/>
<rect x="11" y="2" width="8" height="4" fill="#00ff41" opacity="0.35"/>
<rect x="31" y="2" width="8" height="4" fill="#00ff41" opacity="0.35"/>
<rect x="51" y="2" width="8" height="4" fill="#00ff41" opacity="0.35"/>
<rect x="71" y="2" width="8" height="4" fill="#00ff41" opacity="0.35"/>
<rect x="91" y="2" width="8" height="4" fill="#00ff41" opacity="0.35"/>
<rect x="111" y="2" width="8" height="4" fill="#00ff41" opacity="0.35"/>
<rect x="131" y="2" width="8" height="4" fill="#00ff41" opacity="0.35"/>
<rect x="151" y="2" width="8" height="4" fill="#00ff41" opacity="0.35"/>
<rect x="171" y="2" width="8" height="4" fill="#00ff41" opacity="0.35"/>
<rect x="191" y="2" width="8" height="4" fill="#00ff41" opacity="0.35"/>
<rect x="211" y="2" width="8" height="4" fill="#00ff41" opacity="0.35"/>
<rect x="231" y="2" width="8" height="4" fill="#00ff41" opacity="0.35"/>
<rect x="251" y="2" width="8" height="4" fill="#00ff41" opacity="0.35"/>
<rect x="271" y="2" width="8" height="4" fill="#00ff41" opacity="0.35"/>
<rect x="291" y="2" width="8" height="4" fill="#00ff41" opacity="0.35"/>
<rect x="311" y="2" width="8" height="4" fill="#00ff41" opacity="0.35"/>
<rect x="331" y="2" width="8" height="4" fill="#00ff41" opacity="0.35"/>
<rect x="351" y="2" width="8" height="4" fill="#00ff41" opacity="0.35"/>
<rect x="371" y="2" width="8" height="4" fill="#00ff41" opacity="0.35"/>
<rect x="391" y="2" width="8" height="4" fill="#00ff41" opacity="0.35"/>
<rect x="411" y="2" width="8" height="4" fill="#00ff41" opacity="0.35"/>
<rect x="431" y="2" width="8" height="4" fill="#00ff41" opacity="0.35"/>
<rect x="451" y="2" width="8" height="4" fill="#00ff41" opacity="0.35"/>
<rect x="471" y="2" width="8" height="4" fill="#00ff41" opacity="0.35"/>
<rect x="491" y="2" width="8" height="4" fill="#00ff41" opacity="0.35"/>
<rect x="511" y="2" width="8" height="4" fill="#00ff41" opacity="0.35"/>
<rect x="531" y="2" width="8" height="4" fill="#00ff41" opacity="0.35"/>
<rect x="551" y="2" width="8" height="4" fill="#00ff41" opacity="0.35"/>
<rect x="571" y="2" width="8" height="4" fill="#00ff41" opacity="0.35"/>
<rect x="591" y="2" width="8" height="4" fill="#00ff41" opacity="0.35"/>
<rect x="611" y="2" width="8" height="4" fill="#00ff41" opacity="0.35"/>
<rect x="631" y="2" width="8" height="4" fill="#00ff41" opacity="0.35"/>
<rect x="651" y="2" width="8" height="4" fill="#00ff41" opacity="0.35"/>
<rect x="671" y="2" width="8" height="4" fill="#00ff41" opacity="0.35"/>
<rect x="691" y="2" width="8" height="4" fill="#00ff41" opacity="0.35"/>
<rect x="711" y="2" width="8" height="4" fill="#00ff41" opacity="0.35"/>
<rect x="731" y="2" width="8" height="4" fill="#00ff41" opacity="0.35"/>
<rect x="751" y="2" width="8" height="4" fill="#00ff41" opacity="0.35"/>
<rect x="771" y="2" width="8" height="4" fill="#00ff41" opacity="0.35"/>
<rect x="791" y="2" width="8" height="4" fill="#00ff41" opacity="0.35"/>
<rect x="811" y="2" width="8" height="4" fill="#00ff41" opacity="0.35"/>
<rect x="831" y="2" width="8" height="4" fill="#00ff41" opacity="0.35"/>
<rect x="851" y="2" width="8" height="4" fill="#00ff41" opacity="0.35"/>
<rect x="10" y="10" width="4" height="4" fill="#00ff41" opacity="0.45"/>
<rect x="15" y="10" width="4" height="4" fill="#00ff41" opacity="0.45"/>
<rect x="20" y="10" width="4" height="4" fill="#00ff41" opacity="0.45"/>
<rect x="25" y="10" width="4" height="4" fill="#00ff41" opacity="0.45"/>
<rect x="30" y="10" width="4" height="4" fill="#00ff41" opacity="0.45"/>
<rect x="10" y="15" width="4" height="4" fill="#00ff41" opacity="0.45"/>
<rect x="10" y="20" width="4" height="4" fill="#00ff41" opacity="0.45"/>
<rect x="10" y="25" width="4" height="4" fill="#00ff41" opacity="0.45"/>
<rect x="845" y="10" width="4" height="4" fill="#00ff41" opacity="0.45"/>
<rect x="840" y="10" width="4" height="4" fill="#00ff41" opacity="0.45"/>
<rect x="835" y="10" width="4" height="4" fill="#00ff41" opacity="0.45"/>
<rect x="830" y="10" width="4" height="4" fill="#00ff41" opacity="0.45"/>
<rect x="825" y="10" width="4" height="4" fill="#00ff41" opacity="0.45"/>
<rect x="845" y="15" width="4" height="4" fill="#00ff41" opacity="0.45"/>
<rect x="845" y="20" width="4" height="4" fill="#00ff41" opacity="0.45"/>
<rect x="845" y="25" width="4" height="4" fill="#00ff41" opacity="0.45"/>
<rect x="10" y="85" width="4" height="4" fill="#00ff41" opacity="0.45"/>
<rect x="15" y="85" width="4" height="4" fill="#00ff41" opacity="0.45"/>
<rect x="20" y="85" width="4" height="4" fill="#00ff41" opacity="0.45"/>
<rect x="25" y="85" width="4" height="4" fill="#00ff41" opacity="0.45"/>
<rect x="30" y="85" width="4" height="4" fill="#00ff41" opacity="0.45"/>
<rect x="10" y="80" width="4" height="4" fill="#00ff41" opacity="0.45"/>
<rect x="10" y="75" width="4" height="4" fill="#00ff41" opacity="0.45"/>
<rect x="10" y="70" width="4" height="4" fill="#00ff41" opacity="0.45"/>
<rect x="845" y="85" width="4" height="4" fill="#00ff41" opacity="0.45"/>
<rect x="840" y="85" width="4" height="4" fill="#00ff41" opacity="0.45"/>
<rect x="835" y="85" width="4" height="4" fill="#00ff41" opacity="0.45"/>
<rect x="830" y="85" width="4" height="4" fill="#00ff41" opacity="0.45"/>
<rect x="825" y="85" width="4" height="4" fill="#00ff41" opacity="0.45"/>
<rect x="845" y="80" width="4" height="4" fill="#00ff41" opacity="0.45"/>
<rect x="845" y="75" width="4" height="4" fill="#00ff41" opacity="0.45"/>
<rect x="845" y="70" width="4" height="4" fill="#00ff41" opacity="0.45"/>

<g class="ft" fill="#00ff41">
<rect x="243" y="13" width="6" height="6"/>
<rect x="251" y="13" width="6" height="6"/>
<rect x="259" y="13" width="6" height="6"/>
<rect x="267" y="13" width="6" height="6"/>
<rect x="275" y="13" width="6" height="6"/>
<rect x="243" y="21" width="6" height="6"/>
<rect x="243" y="29" width="6" height="6"/>
<rect x="243" y="37" width="6" height="6"/>
<rect x="251" y="37" width="6" height="6"/>
<rect x="259" y="37" width="6" height="6"/>
<rect x="267" y="37" width="6" height="6"/>
<rect x="243" y="45" width="6" height="6"/>
<rect x="243" y="53" width="6" height="6"/>
<rect x="243" y="61" width="6" height="6"/>
<rect x="251" y="61" width="6" height="6"/>
<rect x="259" y="61" width="6" height="6"/>
<rect x="267" y="61" width="6" height="6"/>
<rect x="275" y="61" width="6" height="6"/>
<rect x="285" y="13" width="6" height="6"/>
<rect x="317" y="13" width="6" height="6"/>
<rect x="285" y="21" width="6" height="6"/>
<rect x="317" y="21" width="6" height="6"/>
<rect x="293" y="29" width="6" height="6"/>
<rect x="309" y="29" width="6" height="6"/>
<rect x="301" y="37" width="6" height="6"/>
<rect x="293" y="45" width="6" height="6"/>
<rect x="309" y="45" width="6" height="6"/>
<rect x="285" y="53" width="6" height="6"/>
<rect x="317" y="53" width="6" height="6"/>
<rect x="285" y="61" width="6" height="6"/>
<rect x="317" y="61" width="6" height="6"/>
<rect x="327" y="13" width="6" height="6"/>
<rect x="335" y="13" width="6" height="6"/>
<rect x="343" y="13" width="6" height="6"/>
<rect x="351" y="13" width="6" height="6"/>
<rect x="359" y="13" width="6" height="6"/>
<rect x="343" y="21" width="6" height="6"/>
<rect x="343" y="29" width="6" height="6"/>
<rect x="343" y="37" width="6" height="6"/>
<rect x="343" y="45" width="6" height="6"/>
<rect x="343" y="53" width="6" height="6"/>
<rect x="327" y="61" width="6" height="6"/>
<rect x="335" y="61" width="6" height="6"/>
<rect x="343" y="61" width="6" height="6"/>
<rect x="351" y="61" width="6" height="6"/>
<rect x="359" y="61" width="6" height="6"/>
<rect x="369" y="13" width="6" height="6"/>
<rect x="377" y="13" width="6" height="6"/>
<rect x="385" y="13" width="6" height="6"/>
<rect x="393" y="13" width="6" height="6"/>
<rect x="401" y="13" width="6" height="6"/>
<rect x="385" y="21" width="6" height="6"/>
<rect x="385" y="29" width="6" height="6"/>
<rect x="385" y="37" width="6" height="6"/>
<rect x="385" y="45" width="6" height="6"/>
<rect x="385" y="53" width="6" height="6"/>
<rect x="385" y="61" width="6" height="6"/>
<rect x="461" y="13" width="6" height="6"/>
<rect x="469" y="13" width="6" height="6"/>
<rect x="477" y="13" width="6" height="6"/>
<rect x="485" y="13" width="6" height="6"/>
<rect x="453" y="21" width="6" height="6"/>
<rect x="453" y="29" width="6" height="6"/>
<rect x="453" y="37" width="6" height="6"/>
<rect x="469" y="37" width="6" height="6"/>
<rect x="477" y="37" width="6" height="6"/>
<rect x="485" y="37" width="6" height="6"/>
<rect x="453" y="45" width="6" height="6"/>
<rect x="485" y="45" width="6" height="6"/>
<rect x="453" y="53" width="6" height="6"/>
<rect x="485" y="53" width="6" height="6"/>
<rect x="461" y="61" width="6" height="6"/>
<rect x="469" y="61" width="6" height="6"/>
<rect x="477" y="61" width="6" height="6"/>
<rect x="485" y="61" width="6" height="6"/>
<rect x="503" y="13" width="6" height="6"/>
<rect x="511" y="13" width="6" height="6"/>
<rect x="519" y="13" width="6" height="6"/>
<rect x="495" y="21" width="6" height="6"/>
<rect x="527" y="21" width="6" height="6"/>
<rect x="495" y="29" width="6" height="6"/>
<rect x="527" y="29" width="6" height="6"/>
<rect x="495" y="37" width="6" height="6"/>
<rect x="503" y="37" width="6" height="6"/>
<rect x="511" y="37" width="6" height="6"/>
<rect x="519" y="37" width="6" height="6"/>
<rect x="527" y="37" width="6" height="6"/>
<rect x="495" y="45" width="6" height="6"/>
<rect x="527" y="45" width="6" height="6"/>
<rect x="495" y="53" width="6" height="6"/>
<rect x="527" y="53" width="6" height="6"/>
<rect x="495" y="61" width="6" height="6"/>
<rect x="527" y="61" width="6" height="6"/>
<rect x="537" y="13" width="6" height="6"/>
<rect x="569" y="13" width="6" height="6"/>
<rect x="537" y="21" width="6" height="6"/>
<rect x="545" y="21" width="6" height="6"/>
<rect x="561" y="21" width="6" height="6"/>
<rect x="569" y="21" width="6" height="6"/>
<rect x="537" y="29" width="6" height="6"/>
<rect x="553" y="29" width="6" height="6"/>
<rect x="569" y="29" width="6" height="6"/>
<rect x="537" y="37" width="6" height="6"/>
<rect x="569" y="37" width="6" height="6"/>
<rect x="537" y="45" width="6" height="6"/>
<rect x="569" y="45" width="6" height="6"/>
<rect x="537" y="53" width="6" height="6"/>
<rect x="569" y="53" width="6" height="6"/>
<rect x="537" y="61" width="6" height="6"/>
<rect x="569" y="61" width="6" height="6"/>
<rect x="579" y="13" width="6" height="6"/>
<rect x="587" y="13" width="6" height="6"/>
<rect x="595" y="13" width="6" height="6"/>
<rect x="603" y="13" width="6" height="6"/>
<rect x="611" y="13" width="6" height="6"/>
<rect x="579" y="21" width="6" height="6"/>
<rect x="579" y="29" width="6" height="6"/>
<rect x="579" y="37" width="6" height="6"/>
<rect x="587" y="37" width="6" height="6"/>
<rect x="595" y="37" width="6" height="6"/>
<rect x="603" y="37" width="6" height="6"/>
<rect x="579" y="45" width="6" height="6"/>
<rect x="579" y="53" width="6" height="6"/>
<rect x="579" y="61" width="6" height="6"/>
<rect x="587" y="61" width="6" height="6"/>
<rect x="595" y="61" width="6" height="6"/>
<rect x="603" y="61" width="6" height="6"/>
<rect x="611" y="61" width="6" height="6"/>
</g>
<rect x="243" y="13" width="2" height="2" fill="#c8ffd7" opacity="0.24"/>
<rect x="251" y="13" width="2" height="2" fill="#c8ffd7" opacity="0.24"/>
<rect x="259" y="13" width="2" height="2" fill="#c8ffd7" opacity="0.24"/>
<rect x="267" y="13" width="2" height="2" fill="#c8ffd7" opacity="0.24"/>
<rect x="275" y="13" width="2" height="2" fill="#c8ffd7" opacity="0.24"/>
<rect x="243" y="21" width="2" height="2" fill="#c8ffd7" opacity="0.24"/>
<rect x="243" y="29" width="2" height="2" fill="#c8ffd7" opacity="0.24"/>
<rect x="243" y="37" width="2" height="2" fill="#c8ffd7" opacity="0.24"/>
<rect x="251" y="37" width="2" height="2" fill="#c8ffd7" opacity="0.24"/>
<rect x="259" y="37" width="2" height="2" fill="#c8ffd7" opacity="0.24"/>
<rect x="267" y="37" width="2" height="2" fill="#c8ffd7" opacity="0.24"/>
<rect x="243" y="45" width="2" height="2" fill="#c8ffd7" opacity="0.24"/>
<rect x="243" y="53" width="2" height="2" fill="#c8ffd7" opacity="0.24"/>
<rect x="243" y="61" width="2" height="2" fill="#c8ffd7" opacity="0.24"/>
<rect x="251" y="61" width="2" height="2" fill="#c8ffd7" opacity="0.24"/>
<rect x="259" y="61" width="2" height="2" fill="#c8ffd7" opacity="0.24"/>
<rect x="267" y="61" width="2" height="2" fill="#c8ffd7" opacity="0.24"/>
<rect x="275" y="61" width="2" height="2" fill="#c8ffd7" opacity="0.24"/>
<rect x="285" y="13" width="2" height="2" fill="#c8ffd7" opacity="0.24"/>
<rect x="317" y="13" width="2" height="2" fill="#c8ffd7" opacity="0.24"/>
<rect x="285" y="21" width="2" height="2" fill="#c8ffd7" opacity="0.24"/>
<rect x="317" y="21" width="2" height="2" fill="#c8ffd7" opacity="0.24"/>
<rect x="293" y="29" width="2" height="2" fill="#c8ffd7" opacity="0.24"/>
<rect x="309" y="29" width="2" height="2" fill="#c8ffd7" opacity="0.24"/>
<rect x="301" y="37" width="2" height="2" fill="#c8ffd7" opacity="0.24"/>
<rect x="293" y="45" width="2" height="2" fill="#c8ffd7" opacity="0.24"/>
<rect x="309" y="45" width="2" height="2" fill="#c8ffd7" opacity="0.24"/>
<rect x="285" y="53" width="2" height="2" fill="#c8ffd7" opacity="0.24"/>
<rect x="317" y="53" width="2" height="2" fill="#c8ffd7" opacity="0.24"/>
<rect x="285" y="61" width="2" height="2" fill="#c8ffd7" opacity="0.24"/>
<rect x="317" y="61" width="2" height="2" fill="#c8ffd7" opacity="0.24"/>
<rect x="327" y="13" width="2" height="2" fill="#c8ffd7" opacity="0.24"/>
<rect x="335" y="13" width="2" height="2" fill="#c8ffd7" opacity="0.24"/>
<rect x="343" y="13" width="2" height="2" fill="#c8ffd7" opacity="0.24"/>
<rect x="351" y="13" width="2" height="2" fill="#c8ffd7" opacity="0.24"/>
<rect x="359" y="13" width="2" height="2" fill="#c8ffd7" opacity="0.24"/>
<rect x="343" y="21" width="2" height="2" fill="#c8ffd7" opacity="0.24"/>
<rect x="343" y="29" width="2" height="2" fill="#c8ffd7" opacity="0.24"/>
<rect x="343" y="37" width="2" height="2" fill="#c8ffd7" opacity="0.24"/>
<rect x="343" y="45" width="2" height="2" fill="#c8ffd7" opacity="0.24"/>
<rect x="343" y="53" width="2" height="2" fill="#c8ffd7" opacity="0.24"/>
<rect x="327" y="61" width="2" height="2" fill="#c8ffd7" opacity="0.24"/>
<rect x="335" y="61" width="2" height="2" fill="#c8ffd7" opacity="0.24"/>
<rect x="343" y="61" width="2" height="2" fill="#c8ffd7" opacity="0.24"/>
<rect x="351" y="61" width="2" height="2" fill="#c8ffd7" opacity="0.24"/>
<rect x="359" y="61" width="2" height="2" fill="#c8ffd7" opacity="0.24"/>
<rect x="369" y="13" width="2" height="2" fill="#c8ffd7" opacity="0.24"/>
<rect x="377" y="13" width="2" height="2" fill="#c8ffd7" opacity="0.24"/>
<rect x="385" y="13" width="2" height="2" fill="#c8ffd7" opacity="0.24"/>
<rect x="393" y="13" width="2" height="2" fill="#c8ffd7" opacity="0.24"/>
<rect x="401" y="13" width="2" height="2" fill="#c8ffd7" opacity="0.24"/>
<rect x="385" y="21" width="2" height="2" fill="#c8ffd7" opacity="0.24"/>
<rect x="385" y="29" width="2" height="2" fill="#c8ffd7" opacity="0.24"/>
<rect x="385" y="37" width="2" height="2" fill="#c8ffd7" opacity="0.24"/>
<rect x="385" y="45" width="2" height="2" fill="#c8ffd7" opacity="0.24"/>
<rect x="385" y="53" width="2" height="2" fill="#c8ffd7" opacity="0.24"/>
<rect x="385" y="61" width="2" height="2" fill="#c8ffd7" opacity="0.24"/>
<rect x="461" y="13" width="2" height="2" fill="#c8ffd7" opacity="0.24"/>
<rect x="469" y="13" width="2" height="2" fill="#c8ffd7" opacity="0.24"/>
<rect x="477" y="13" width="2" height="2" fill="#c8ffd7" opacity="0.24"/>
<rect x="485" y="13" width="2" height="2" fill="#c8ffd7" opacity="0.24"/>
<rect x="453" y="21" width="2" height="2" fill="#c8ffd7" opacity="0.24"/>
<rect x="453" y="29" width="2" height="2" fill="#c8ffd7" opacity="0.24"/>
<rect x="453" y="37" width="2" height="2" fill="#c8ffd7" opacity="0.24"/>
<rect x="469" y="37" width="2" height="2" fill="#c8ffd7" opacity="0.24"/>
<rect x="477" y="37" width="2" height="2" fill="#c8ffd7" opacity="0.24"/>
<rect x="485" y="37" width="2" height="2" fill="#c8ffd7" opacity="0.24"/>
<rect x="453" y="45" width="2" height="2" fill="#c8ffd7" opacity="0.24"/>
<rect x="485" y="45" width="2" height="2" fill="#c8ffd7" opacity="0.24"/>
<rect x="453" y="53" width="2" height="2" fill="#c8ffd7" opacity="0.24"/>
<rect x="485" y="53" width="2" height="2" fill="#c8ffd7" opacity="0.24"/>
<rect x="461" y="61" width="2" height="2" fill="#c8ffd7" opacity="0.24"/>
<rect x="469" y="61" width="2" height="2" fill="#c8ffd7" opacity="0.24"/>
<rect x="477" y="61" width="2" height="2" fill="#c8ffd7" opacity="0.24"/>
<rect x="485" y="61" width="2" height="2" fill="#c8ffd7" opacity="0.24"/>
<rect x="503" y="13" width="2" height="2" fill="#c8ffd7" opacity="0.24"/>
<rect x="511" y="13" width="2" height="2" fill="#c8ffd7" opacity="0.24"/>
<rect x="519" y="13" width="2" height="2" fill="#c8ffd7" opacity="0.24"/>
<rect x="495" y="21" width="2" height="2" fill="#c8ffd7" opacity="0.24"/>
<rect x="527" y="21" width="2" height="2" fill="#c8ffd7" opacity="0.24"/>
<rect x="495" y="29" width="2" height="2" fill="#c8ffd7" opacity="0.24"/>
<rect x="527" y="29" width="2" height="2" fill="#c8ffd7" opacity="0.24"/>
<rect x="495" y="37" width="2" height="2" fill="#c8ffd7" opacity="0.24"/>
<rect x="503" y="37" width="2" height="2" fill="#c8ffd7" opacity="0.24"/>
<rect x="511" y="37" width="2" height="2" fill="#c8ffd7" opacity="0.24"/>
<rect x="519" y="37" width="2" height="2" fill="#c8ffd7" opacity="0.24"/>
<rect x="527" y="37" width="2" height="2" fill="#c8ffd7" opacity="0.24"/>
<rect x="495" y="45" width="2" height="2" fill="#c8ffd7" opacity="0.24"/>
<rect x="527" y="45" width="2" height="2" fill="#c8ffd7" opacity="0.24"/>
<rect x="495" y="53" width="2" height="2" fill="#c8ffd7" opacity="0.24"/>
<rect x="527" y="53" width="2" height="2" fill="#c8ffd7" opacity="0.24"/>
<rect x="495" y="61" width="2" height="2" fill="#c8ffd7" opacity="0.24"/>
<rect x="527" y="61" width="2" height="2" fill="#c8ffd7" opacity="0.24"/>
<rect x="537" y="13" width="2" height="2" fill="#c8ffd7" opacity="0.24"/>
<rect x="569" y="13" width="2" height="2" fill="#c8ffd7" opacity="0.24"/>
<rect x="537" y="21" width="2" height="2" fill="#c8ffd7" opacity="0.24"/>
<rect x="545" y="21" width="2" height="2" fill="#c8ffd7" opacity="0.24"/>
<rect x="561" y="21" width="2" height="2" fill="#c8ffd7" opacity="0.24"/>
<rect x="569" y="21" width="2" height="2" fill="#c8ffd7" opacity="0.24"/>
<rect x="537" y="29" width="2" height="2" fill="#c8ffd7" opacity="0.24"/>
<rect x="553" y="29" width="2" height="2" fill="#c8ffd7" opacity="0.24"/>
<rect x="569" y="29" width="2" height="2" fill="#c8ffd7" opacity="0.24"/>
<rect x="537" y="37" width="2" height="2" fill="#c8ffd7" opacity="0.24"/>
<rect x="569" y="37" width="2" height="2" fill="#c8ffd7" opacity="0.24"/>
<rect x="537" y="45" width="2" height="2" fill="#c8ffd7" opacity="0.24"/>
<rect x="569" y="45" width="2" height="2" fill="#c8ffd7" opacity="0.24"/>
<rect x="537" y="53" width="2" height="2" fill="#c8ffd7" opacity="0.24"/>
<rect x="569" y="53" width="2" height="2" fill="#c8ffd7" opacity="0.24"/>
<rect x="537" y="61" width="2" height="2" fill="#c8ffd7" opacity="0.24"/>
<rect x="569" y="61" width="2" height="2" fill="#c8ffd7" opacity="0.24"/>
<rect x="579" y="13" width="2" height="2" fill="#c8ffd7" opacity="0.24"/>
<rect x="587" y="13" width="2" height="2" fill="#c8ffd7" opacity="0.24"/>
<rect x="595" y="13" width="2" height="2" fill="#c8ffd7" opacity="0.24"/>
<rect x="603" y="13" width="2" height="2" fill="#c8ffd7" opacity="0.24"/>
<rect x="611" y="13" width="2" height="2" fill="#c8ffd7" opacity="0.24"/>
<rect x="579" y="21" width="2" height="2" fill="#c8ffd7" opacity="0.24"/>
<rect x="579" y="29" width="2" height="2" fill="#c8ffd7" opacity="0.24"/>
<rect x="579" y="37" width="2" height="2" fill="#c8ffd7" opacity="0.24"/>
<rect x="587" y="37" width="2" height="2" fill="#c8ffd7" opacity="0.24"/>
<rect x="595" y="37" width="2" height="2" fill="#c8ffd7" opacity="0.24"/>
<rect x="603" y="37" width="2" height="2" fill="#c8ffd7" opacity="0.24"/>
<rect x="579" y="45" width="2" height="2" fill="#c8ffd7" opacity="0.24"/>
<rect x="579" y="53" width="2" height="2" fill="#c8ffd7" opacity="0.24"/>
<rect x="579" y="61" width="2" height="2" fill="#c8ffd7" opacity="0.24"/>
<rect x="587" y="61" width="2" height="2" fill="#c8ffd7" opacity="0.24"/>
<rect x="595" y="61" width="2" height="2" fill="#c8ffd7" opacity="0.24"/>
<rect x="603" y="61" width="2" height="2" fill="#c8ffd7" opacity="0.24"/>
<rect x="611" y="61" width="2" height="2" fill="#c8ffd7" opacity="0.24"/>

<g fill="#00d23c" opacity="0.7">
<rect x="223" y="73" width="2" height="2"/>
<rect x="227" y="73" width="2" height="2"/>
<rect x="231" y="73" width="2" height="2"/>
<rect x="235" y="73" width="2" height="2"/>
<rect x="239" y="73" width="2" height="2"/>
<rect x="231" y="77" width="2" height="2"/>
<rect x="231" y="81" width="2" height="2"/>
<rect x="231" y="85" width="2" height="2"/>
<rect x="231" y="89" width="2" height="2"/>
<rect x="231" y="93" width="2" height="2"/>
<rect x="231" y="97" width="2" height="2"/>
<rect x="245" y="73" width="2" height="2"/>
<rect x="261" y="73" width="2" height="2"/>
<rect x="245" y="77" width="2" height="2"/>
<rect x="261" y="77" width="2" height="2"/>
<rect x="245" y="81" width="2" height="2"/>
<rect x="261" y="81" width="2" height="2"/>
<rect x="245" y="85" width="2" height="2"/>
<rect x="249" y="85" width="2" height="2"/>
<rect x="253" y="85" width="2" height="2"/>
<rect x="257" y="85" width="2" height="2"/>
<rect x="261" y="85" width="2" height="2"/>
<rect x="245" y="89" width="2" height="2"/>
<rect x="261" y="89" width="2" height="2"/>
<rect x="245" y="93" width="2" height="2"/>
<rect x="261" y="93" width="2" height="2"/>
<rect x="245" y="97" width="2" height="2"/>
<rect x="261" y="97" width="2" height="2"/>
<rect x="271" y="73" width="2" height="2"/>
<rect x="275" y="73" width="2" height="2"/>
<rect x="279" y="73" width="2" height="2"/>
<rect x="267" y="77" width="2" height="2"/>
<rect x="283" y="77" width="2" height="2"/>
<rect x="267" y="81" width="2" height="2"/>
<rect x="283" y="81" width="2" height="2"/>
<rect x="267" y="85" width="2" height="2"/>
<rect x="271" y="85" width="2" height="2"/>
<rect x="275" y="85" width="2" height="2"/>
<rect x="279" y="85" width="2" height="2"/>
<rect x="283" y="85" width="2" height="2"/>
<rect x="267" y="89" width="2" height="2"/>
<rect x="283" y="89" width="2" height="2"/>
<rect x="267" y="93" width="2" height="2"/>
<rect x="283" y="93" width="2" height="2"/>
<rect x="267" y="97" width="2" height="2"/>
<rect x="283" y="97" width="2" height="2"/>
<rect x="289" y="73" width="2" height="2"/>
<rect x="305" y="73" width="2" height="2"/>
<rect x="289" y="77" width="2" height="2"/>
<rect x="293" y="77" width="2" height="2"/>
<rect x="305" y="77" width="2" height="2"/>
<rect x="289" y="81" width="2" height="2"/>
<rect x="297" y="81" width="2" height="2"/>
<rect x="305" y="81" width="2" height="2"/>
<rect x="289" y="85" width="2" height="2"/>
<rect x="301" y="85" width="2" height="2"/>
<rect x="305" y="85" width="2" height="2"/>
<rect x="289" y="89" width="2" height="2"/>
<rect x="305" y="89" width="2" height="2"/>
<rect x="289" y="93" width="2" height="2"/>
<rect x="305" y="93" width="2" height="2"/>
<rect x="289" y="97" width="2" height="2"/>
<rect x="305" y="97" width="2" height="2"/>
<rect x="311" y="73" width="2" height="2"/>
<rect x="327" y="73" width="2" height="2"/>
<rect x="311" y="77" width="2" height="2"/>
<rect x="323" y="77" width="2" height="2"/>
<rect x="311" y="81" width="2" height="2"/>
<rect x="319" y="81" width="2" height="2"/>
<rect x="311" y="85" width="2" height="2"/>
<rect x="315" y="85" width="2" height="2"/>
<rect x="311" y="89" width="2" height="2"/>
<rect x="319" y="89" width="2" height="2"/>
<rect x="311" y="93" width="2" height="2"/>
<rect x="323" y="93" width="2" height="2"/>
<rect x="311" y="97" width="2" height="2"/>
<rect x="327" y="97" width="2" height="2"/>
<rect x="337" y="73" width="2" height="2"/>
<rect x="341" y="73" width="2" height="2"/>
<rect x="345" y="73" width="2" height="2"/>
<rect x="349" y="73" width="2" height="2"/>
<rect x="333" y="77" width="2" height="2"/>
<rect x="333" y="81" width="2" height="2"/>
<rect x="337" y="85" width="2" height="2"/>
<rect x="341" y="85" width="2" height="2"/>
<rect x="345" y="85" width="2" height="2"/>
<rect x="349" y="89" width="2" height="2"/>
<rect x="349" y="93" width="2" height="2"/>
<rect x="333" y="97" width="2" height="2"/>
<rect x="337" y="97" width="2" height="2"/>
<rect x="341" y="97" width="2" height="2"/>
<rect x="345" y="97" width="2" height="2"/>
<rect x="377" y="73" width="2" height="2"/>
<rect x="381" y="73" width="2" height="2"/>
<rect x="385" y="73" width="2" height="2"/>
<rect x="389" y="73" width="2" height="2"/>
<rect x="393" y="73" width="2" height="2"/>
<rect x="377" y="77" width="2" height="2"/>
<rect x="377" y="81" width="2" height="2"/>
<rect x="377" y="85" width="2" height="2"/>
<rect x="381" y="85" width="2" height="2"/>
<rect x="385" y="85" width="2" height="2"/>
<rect x="389" y="85" width="2" height="2"/>
<rect x="377" y="89" width="2" height="2"/>
<rect x="377" y="93" width="2" height="2"/>
<rect x="377" y="97" width="2" height="2"/>
<rect x="403" y="73" width="2" height="2"/>
<rect x="407" y="73" width="2" height="2"/>
<rect x="411" y="73" width="2" height="2"/>
<rect x="399" y="77" width="2" height="2"/>
<rect x="415" y="77" width="2" height="2"/>
<rect x="399" y="81" width="2" height="2"/>
<rect x="415" y="81" width="2" height="2"/>
<rect x="399" y="85" width="2" height="2"/>
<rect x="415" y="85" width="2" height="2"/>
<rect x="399" y="89" width="2" height="2"/>
<rect x="415" y="89" width="2" height="2"/>
<rect x="399" y="93" width="2" height="2"/>
<rect x="415" y="93" width="2" height="2"/>
<rect x="403" y="97" width="2" height="2"/>
<rect x="407" y="97" width="2" height="2"/>
<rect x="411" y="97" width="2" height="2"/>
<rect x="421" y="73" width="2" height="2"/>
<rect x="425" y="73" width="2" height="2"/>
<rect x="429" y="73" width="2" height="2"/>
<rect x="433" y="73" width="2" height="2"/>
<rect x="421" y="77" width="2" height="2"/>
<rect x="437" y="77" width="2" height="2"/>
<rect x="421" y="81" width="2" height="2"/>
<rect x="437" y="81" width="2" height="2"/>
<rect x="421" y="85" width="2" height="2"/>
<rect x="425" y="85" width="2" height="2"/>
<rect x="429" y="85" width="2" height="2"/>
<rect x="433" y="85" width="2" height="2"/>
<rect x="421" y="89" width="2" height="2"/>
<rect x="429" y="89" width="2" height="2"/>
<rect x="421" y="93" width="2" height="2"/>
<rect x="433" y="93" width="2" height="2"/>
<rect x="421" y="97" width="2" height="2"/>
<rect x="437" y="97" width="2" height="2"/>
<rect x="465" y="73" width="2" height="2"/>
<rect x="481" y="73" width="2" height="2"/>
<rect x="465" y="77" width="2" height="2"/>
<rect x="481" y="77" width="2" height="2"/>
<rect x="465" y="81" width="2" height="2"/>
<rect x="481" y="81" width="2" height="2"/>
<rect x="465" y="85" width="2" height="2"/>
<rect x="481" y="85" width="2" height="2"/>
<rect x="469" y="89" width="2" height="2"/>
<rect x="477" y="89" width="2" height="2"/>
<rect x="469" y="93" width="2" height="2"/>
<rect x="477" y="93" width="2" height="2"/>
<rect x="473" y="97" width="2" height="2"/>
<rect x="487" y="73" width="2" height="2"/>
<rect x="491" y="73" width="2" height="2"/>
<rect x="495" y="73" width="2" height="2"/>
<rect x="499" y="73" width="2" height="2"/>
<rect x="503" y="73" width="2" height="2"/>
<rect x="495" y="77" width="2" height="2"/>
<rect x="495" y="81" width="2" height="2"/>
<rect x="495" y="85" width="2" height="2"/>
<rect x="495" y="89" width="2" height="2"/>
<rect x="495" y="93" width="2" height="2"/>
<rect x="487" y="97" width="2" height="2"/>
<rect x="491" y="97" width="2" height="2"/>
<rect x="495" y="97" width="2" height="2"/>
<rect x="499" y="97" width="2" height="2"/>
<rect x="503" y="97" width="2" height="2"/>
<rect x="513" y="73" width="2" height="2"/>
<rect x="517" y="73" width="2" height="2"/>
<rect x="521" y="73" width="2" height="2"/>
<rect x="525" y="73" width="2" height="2"/>
<rect x="509" y="77" width="2" height="2"/>
<rect x="509" y="81" width="2" height="2"/>
<rect x="513" y="85" width="2" height="2"/>
<rect x="517" y="85" width="2" height="2"/>
<rect x="521" y="85" width="2" height="2"/>
<rect x="525" y="89" width="2" height="2"/>
<rect x="525" y="93" width="2" height="2"/>
<rect x="509" y="97" width="2" height="2"/>
<rect x="513" y="97" width="2" height="2"/>
<rect x="517" y="97" width="2" height="2"/>
<rect x="521" y="97" width="2" height="2"/>
<rect x="531" y="73" width="2" height="2"/>
<rect x="535" y="73" width="2" height="2"/>
<rect x="539" y="73" width="2" height="2"/>
<rect x="543" y="73" width="2" height="2"/>
<rect x="547" y="73" width="2" height="2"/>
<rect x="539" y="77" width="2" height="2"/>
<rect x="539" y="81" width="2" height="2"/>
<rect x="539" y="85" width="2" height="2"/>
<rect x="539" y="89" width="2" height="2"/>
<rect x="539" y="93" width="2" height="2"/>
<rect x="531" y="97" width="2" height="2"/>
<rect x="535" y="97" width="2" height="2"/>
<rect x="539" y="97" width="2" height="2"/>
<rect x="543" y="97" width="2" height="2"/>
<rect x="547" y="97" width="2" height="2"/>
<rect x="553" y="73" width="2" height="2"/>
<rect x="557" y="73" width="2" height="2"/>
<rect x="561" y="73" width="2" height="2"/>
<rect x="565" y="73" width="2" height="2"/>
<rect x="569" y="73" width="2" height="2"/>
<rect x="561" y="77" width="2" height="2"/>
<rect x="561" y="81" width="2" height="2"/>
<rect x="561" y="85" width="2" height="2"/>
<rect x="561" y="89" width="2" height="2"/>
<rect x="561" y="93" width="2" height="2"/>
<rect x="561" y="97" width="2" height="2"/>
<rect x="575" y="73" width="2" height="2"/>
<rect x="579" y="73" width="2" height="2"/>
<rect x="583" y="73" width="2" height="2"/>
<rect x="587" y="73" width="2" height="2"/>
<rect x="591" y="73" width="2" height="2"/>
<rect x="583" y="77" width="2" height="2"/>
<rect x="583" y="81" width="2" height="2"/>
<rect x="583" y="85" width="2" height="2"/>
<rect x="583" y="89" width="2" height="2"/>
<rect x="583" y="93" width="2" height="2"/>
<rect x="575" y="97" width="2" height="2"/>
<rect x="579" y="97" width="2" height="2"/>
<rect x="583" y="97" width="2" height="2"/>
<rect x="587" y="97" width="2" height="2"/>
<rect x="591" y="97" width="2" height="2"/>
<rect x="597" y="73" width="2" height="2"/>
<rect x="613" y="73" width="2" height="2"/>
<rect x="597" y="77" width="2" height="2"/>
<rect x="601" y="77" width="2" height="2"/>
<rect x="613" y="77" width="2" height="2"/>
<rect x="597" y="81" width="2" height="2"/>
<rect x="605" y="81" width="2" height="2"/>
<rect x="613" y="81" width="2" height="2"/>
<rect x="597" y="85" width="2" height="2"/>
<rect x="609" y="85" width="2" height="2"/>
<rect x="613" y="85" width="2" height="2"/>
<rect x="597" y="89" width="2" height="2"/>
<rect x="613" y="89" width="2" height="2"/>
<rect x="597" y="93" width="2" height="2"/>
<rect x="613" y="93" width="2" height="2"/>
<rect x="597" y="97" width="2" height="2"/>
<rect x="613" y="97" width="2" height="2"/>
<rect x="623" y="73" width="2" height="2"/>
<rect x="627" y="73" width="2" height="2"/>
<rect x="631" y="73" width="2" height="2"/>
<rect x="635" y="73" width="2" height="2"/>
<rect x="619" y="77" width="2" height="2"/>
<rect x="619" y="81" width="2" height="2"/>
<rect x="619" y="85" width="2" height="2"/>
<rect x="627" y="85" width="2" height="2"/>
<rect x="631" y="85" width="2" height="2"/>
<rect x="635" y="85" width="2" height="2"/>
<rect x="619" y="89" width="2" height="2"/>
<rect x="635" y="89" width="2" height="2"/>
<rect x="619" y="93" width="2" height="2"/>
<rect x="635" y="93" width="2" height="2"/>
<rect x="623" y="97" width="2" height="2"/>
<rect x="627" y="97" width="2" height="2"/>
<rect x="631" y="97" width="2" height="2"/>
<rect x="635" y="97" width="2" height="2"/>
</g>

<rect class="fc" x="644" y="72" width="3" height="27" fill="#00ff41"/>
</svg>