<svg xmlns="http://www.w3.org/2000/svg" width="860" height="100" viewBox="0 0 860 100">
<defs>
  <style>
    .ft{animation:fg 3s ease-in-out infinite;}
    @keyframes fg{
      0%,100%{filter:drop-shadow(0 0 3px #00ff41) drop-shadow(0 0 5px #00ff41);}
      50%{filter:drop-shadow(0 0 8px #00ff41) drop-shadow(0 0 16px #00ff41);}
    }
    .fc{animation:fc 1s steps(1) 0.5s infinite;}
    @keyframes fc{0%,49%{opacity:1;}50%,100%{opacity:0;}}
  </style>
</defs>

<rect width="860" height="100" fill="#050a05"/>
<rect x="0" y="0" width="860" height="1" fill="#000" opacity="0.07"/><rect x="0" y="2" width="860" height="1" fill="#000" opacity="0.07"/><rect x="0" y="4" width="860" height="1" fill="#000" opacity="0.07"/><rect x="0" y="6" width="860" height="1" fill="#000" opacity="0.07"/><rect x="0" y="8" width="860" height="1" fill="#000" opacity="0.07"/><rect x="0" y="10" width="860" height="1" fill="#000" opacity="0.07"/><rect x="0" y="12" width="860" height="1" fill="#000" opacity="0.07"/><rect x="0" y="14" width="860" height="1" fill="#000" opacity="0.07"/><rect x="0" y="16" width="860" height="1" fill="#000" opacity="0.07"/><rect x="0" y="18" width="860" height="1" fill="#000" opacity="0.07"/><rect x="0" y="20" width="860" height="1" fill="#000" opacity="0.07"/><rect x="0" y="22" width="860" height="1" fill="#000" opacity="0.07"/><rect x="0" y="24" width="860" height="1" fill="#000" opacity="0.07"/><rect x="0" y="26" width="860" height="1" fill="#000" opacity="0.07"/><rect x="0" y="28" width="860" height="1" fill="#000" opacity="0.07"/><rect x="0" y="30" width="860" height="1" fill="#000" opacity="0.07"/><rect x="0" y="32" width="860" height="1" fill="#000" opacity="0.07"/><rect x="0" y="34" width="860" height="1" fill="#000" opacity="0.07"/><rect x="0" y="36" width="860" height="1" fill="#000" opacity="0.07"/><rect x="0" y="38" width="860" height="1" fill="#000" opacity="0.07"/><rect x="0" y="40" width="860" height="1" fill="#000" opacity="0.07"/><rect x="0" y="42" width="860" height="1" fill="#000" opacity="0.07"/><rect x="0" y="44" width="860" height="1" fill="#000" opacity="0.07"/><rect x="0" y="46" width="860" height="1" fill="#000" opacity="0.07"/><rect x="0" y="48" width="860" height="1" fill="#000" opacity="0.07"/><rect x="0" y="50" width="860" height="1" fill="#000" opacity="0.07"/><rect x="0" y="52" width="860" height="1" fill="#000" opacity="0.07"/><rect x="0" y="54" width="860" height="1" fill="#000" opacity="0.07"/><rect x="0" y="56" width="860" height="1" fill="#000" opacity="0.07"/><rect x="0" y="58" width="860" height="1" fill="#000" opacity="0.07"/><rect x="0" y="60" width="860" height="1" fill="#000" opacity="0.07"/><rect x="0" y="62" width="860" height="1" fill="#000" opacity="0.07"/><rect x="0" y="64" width="860" height="1" fill="#000" opacity="0.07"/><rect x="0" y="66" width="860" height="1" fill="#000" opacity="0.07"/><rect x="0" y="68" width="860" height="1" fill="#000" opacity="0.07"/><rect x="0" y="70" width="860" height="1" fill="#000" opacity="0.07"/><rect x="0" y="72" width="860" height="1" fill="#000" opacity="0.07"/><rect x="0" y="74" width="860" height="1" fill="#000" opacity="0.07"/><rect x="0" y="76" width="860" height="1" fill="#000" opacity="0.07"/><rect x="0" y="78" width="860" height="1" fill="#000" opacity="0.07"/><rect x="0" y="80" width="860" height="1" fill="#000" opacity="0.07"/><rect x="0" y="82" width="860" height="1" fill="#000" opacity="0.07"/><rect x="0" y="84" width="860" height="1" fill="#000" opacity="0.07"/><rect x="0" y="86" width="860" height="1" fill="#000" opacity="0.07"/><rect x="0" y="88" width="860" height="1" fill="#000" opacity="0.07"/><rect x="0" y="90" width="860" height="1" fill="#000" opacity="0.07"/><rect x="0" y="92" width="860" height="1" fill="#000" opacity="0.07"/><rect x="0" y="94" width="860" height="1" fill="#000" opacity="0.07"/><rect x="0" y="96" width="860" height="1" fill="#000" opacity="0.07"/><rect x="0" y="98" width="860" height="1" fill="#000" opacity="0.07"/>
<rect x="11" y="2" width="8" height="4" fill="#00ff41" opacity="0.35"/>
<rect x="31" y="2" width="8" height="4" fill="#00ff41" opacity="0.35"/>
<rect x="51" y="2" width="8" height="4" fill="#00ff41" opacity="0.35"/>
<rect x="71" y="2" width="8" height="4" fill="#00ff41" opacity="0.35"/>
<rect x="91" y="2" width="8" height="4" fill="#00ff41" opacity="0.35"/>
<rect x="111" y="2" width="8" height="4" fill="#00ff41" opacity="0.35"/>
<rect x="131" y="2" width="8" height="4" fill="#00ff41" opacity="0.35"/>
<rect x="151" y="2" width="8" height="4" fill="#00ff41" opacity="0.35"/>
<rect x="171" y="2" width="8" height="4" fill="#00ff41" opacity="0.35"/>
<rect x="191" y="2" width="8" height="4" fill="#00ff41" opacity="0.35"/>
<rect x="211" y="2" width="8" height="4" fill="#00ff41" opacity="0.35"/>
<rect x="231" y="2" width="8" height="4" fill="#00ff41" opacity="0.35"/>
<rect x="251" y="2" width="8" height="4" fill="#00ff41" opacity="0.35"/>
<rect x="271" y="2" width="8" height="4" fill="#00ff41" opacity="0.35"/>
<rect x="291" y="2" width="8" height="4" fill="#00ff41" opacity="0.35"/>
<rect x="311" y="2" width="8" height="4" fill="#00ff41" opacity="0.35"/>
<rect x="331" y="2" width="8" height="4" fill="#00ff41" opacity="0.35"/>
<rect x="351" y="2" width="8" height="4" fill="#00ff41" opacity="0.35"/>
<rect x="371" y="2" width="8" height="4" fill="#00ff41" opacity="0.35"/>
<rect x="391" y="2" width="8" height="4" fill="#00ff41" opacity="0.35"/>
<rect x="411" y="2" width="8" height="4" fill="#00ff41" opacity="0.35"/>
<rect x="431" y="2" width="8" height="4" fill="#00ff41" opacity="0.35"/>
<rect x="451" y="2" width="8" height="4" fill="#00ff41" opacity="0.35"/>
<rect x="471" y="2" width="8" height="4" fill="#00ff41" opacity="0.35"/>
<rect x="491" y="2" width="8" height="4" fill="#00ff41" opacity="0.35"/>
<rect x="511" y="2" width="8" height="4" fill="#00ff41" opacity="0.35"/>
<rect x="531" y="2" width="8" height="4" fill="#00ff41" opacity="0.35"/>
<rect x="551" y="2" width="8" height="4" fill="#00ff41" opacity="0.35"/>
<rect x="571" y="2" width="8" height="4" fill="#00ff41" opacity="0.35"/>
<rect x="591" y="2" width="8" height="4" fill="#00ff41" opacity="0.35"/>
<rect x="611" y="2" width="8" height="4" fill="#00ff41" opacity="0.35"/>
<rect x="631" y="2" width="8" height="4" fill="#00ff41" opacity="0.35"/>
<rect x="651" y="2" width="8" height="4" fill="#00ff41" opacity="0.35"/>
<rect x="671" y="2" width="8" height="4" fill="#00ff41" opacity="0.35"/>
<rect x="691" y="2" width="8" height="4" fill="#00ff41" opacity="0.35"/>
<rect x="711" y="2" width="8" height="4" fill="#00ff41" opacity="0.35"/>
<rect x="731" y="2" width="8" height="4" fill="#00ff41" opacity="0.35"/>
<rect x="751" y="2" width="8" height="4" fill="#00ff41" opacity="0.35"/>
<rect x="771" y="2" width="8" height="4" fill="#00ff41" opacity="0.35"/>
<rect x="791" y="2" width="8" height="4" fill="#00ff41" opacity="0.35"/>
<rect x="811" y="2" width="8" height="4" fill="#00ff41" opacity="0.35"/>
<rect x="831" y="2" width="8" height="4" fill="#00ff41" opacity="0.35"/>
<rect x="851" y="2" width="8" height="4" fill="#00ff41" opacity="0.35"/>
<rect x="10" y="10" width="4" height="4" fill="#00ff41" opacity="0.45"/>
<rect x="15" y="10" width="4" height="4" fill="#00ff41" opacity="0.45"/>
<rect x="20" y="10" width="4" height="4" fill="#00ff41" opacity="0.45"/>
<rect x="25" y="10" width="4" height="4" fill="#00ff41" opacity="0.45"/>
<rect x="30" y="10" width="4" height="4" fill="#00ff41" opacity="0.45"/>
<rect x="10" y="15" width="4" height="4" fill="#00ff41" opacity="0.45"/>
<rect x="10" y="20" width="4" height="4" fill="#00ff41" opacity="0.45"/>
<rect x="10" y="25" width="4" height="4" fill="#00ff41" opacity="0.45"/>
<rect x="845" y="10" width="4" height="4" fill="#00ff41" opacity="0.45"/>
<rect x="840" y="10" width="4" height="4" fill="#00ff41" opacity="0.45"/>
<rect x="835" y="10" width="4" height="4" fill="#00ff41" opacity="0.45"/>
<rect x="830" y="10" width="4" height="4" fill="#00ff41" opacity="0.45"/>
<rect x="825" y="10" width="4" height="4" fill="#00ff41" opacity="0.45"/>
<rect x="845" y="15" width="4" height="4" fill="#00ff41" opacity="0.45"/>
<rect x="845" y="20" width="4" height="4" fill="#00ff41" opacity="0.45"/>
<rect x="845" y="25" width="4" height="4" fill="#00ff41" opacity="0.45"/>
<rect x="10" y="85" width="4" height="4" fill="#00ff41" opacity="0.45"/>
<rect x="15" y="85" width="4" height="4" fill="#00ff41" opacity="0.45"/>
<rect x="20" y="85" width="4" height="4" fill="#00ff41" opacity="0.45"/>
<rect x="25" y="85" width="4" height="4" fill="#00ff41" opacity="0.45"/>
<rect x="30" y="85" width="4" height="4" fill="#00ff41" opacity="0.45"/>
<rect x="10" y="80" width="4" height="4" fill="#00ff41" opacity="0.45"/>
<rect x="10" y="75" width="4" height="4" fill="#00ff41" opacity="0.45"/>
<rect x="10" y="70" width="4" height="4" fill="#00ff41" opacity="0.45"/>
<rect x="845" y="85" width="4" height="4" fill="#00ff41" opacity="0.45"/>
<rect x="840" y="85" width="4" height="4" fill="#00ff41" opacity="0.45"/>
<rect x="835" y="85" width="4" height="4" fill="#00ff41" opacity="0.45"/>
<rect x="830" y="85" width="4" height="4" fill="#00ff41" opacity="0.45"/>
<rect x="825" y="85" width="4" height="4" fill="#00ff41" opacity="0.45"/>
<rect x="845" y="80" width="4" height="4" fill="#00ff41" opacity="0.45"/>
<rect x="845" y="75" width="4" height="4" fill="#00ff41" opacity="0.45"/>
<rect x="845" y="70" width="4" height="4" fill="#00ff41" opacity="0.45"/>

<g class="ft" fill="#00ff41">
<rect x="179" y="12" width="8" height="8"/>
<rect x="187" y="12" width="8" height="8"/>
<rect x="195" y="12" width="8" height="8"/>
<rect x="203" y="12" width="8" height="8"/>
<rect x="211" y="12" width="8" height="8"/>
<rect x="179" y="20" width="8" height="8"/>
<rect x="179" y="28" width="8" height="8"/>
<rect x="179" y="36" width="8" height="8"/>
<rect x="187" y="36" width="8" height="8"/>
<rect x="195" y="36" width="8" height="8"/>
<rect x="203" y="36" width="8" height="8"/>
<rect x="179" y="44" width="8" height="8"/>
<rect x="179" y="52" width="8" height="8"/>
<rect x="179" y="60" width="8" height="8"/>
<rect x="187" y="60" width="8" height="8"/>
<rect x="195" y="60" width="8" height="8"/>
<rect x="203" y="60" width="8" height="8"/>
<rect x="211" y="60" width="8" height="8"/>
<rect x="221" y="12" width="8" height="8"/>
<rect x="253" y="12" width="8" height="8"/>
<rect x="221" y="20" width="8" height="8"/>
<rect x="253" y="20" width="8" height="8"/>
<rect x="229" y="28" width="8" height="8"/>
<rect x="245" y="28" width="8" height="8"/>
<rect x="237" y="36" width="8" height="8"/>
<rect x="229" y="44" width="8" height="8"/>
<rect x="245" y="44" width="8" height="8"/>
<rect x="221" y="52" width="8" height="8"/>
<rect x="253" y="52" width="8" height="8"/>
<rect x="221" y="60" width="8" height="8"/>
<rect x="253" y="60" width="8" height="8"/>
<rect x="263" y="12" width="8" height="8"/>
<rect x="271" y="12" width="8" height="8"/>
<rect x="279" y="12" width="8" height="8"/>
<rect x="287" y="12" width="8" height="8"/>
<rect x="295" y="12" width="8" height="8"/>
<rect x="279" y="20" width="8" height="8"/>
<rect x="279" y="28" width="8" height="8"/>
<rect x="279" y="36" width="8" height="8"/>
<rect x="279" y="44" width="8" height="8"/>
<rect x="279" y="52" width="8" height="8"/>
<rect x="263" y="60" width="8" height="8"/>
<rect x="271" y="60" width="8" height="8"/>
<rect x="279" y="60" width="8" height="8"/>
<rect x="287" y="60" width="8" height="8"/>
<rect x="295" y="60" width="8" height="8"/>
<rect x="305" y="12" width="8" height="8"/>
<rect x="313" y="12" width="8" height="8"/>
<rect x="321" y="12" width="8" height="8"/>
<rect x="329" y="12" width="8" height="8"/>
<rect x="337" y="12" width="8" height="8"/>
<rect x="321" y="20" width="8" height="8"/>
<rect x="321" y="28" width="8" height="8"/>
<rect x="321" y="36" width="8" height="8"/>
<rect x="321" y="44" width="8" height="8"/>
<rect x="321" y="52" width="8" height="8"/>
<rect x="321" y="60" width="8" height="8"/>
<rect x="389" y="12" width="8" height="8"/>
<rect x="397" y="12" width="8" height="8"/>
<rect x="405" y="12" width="8" height="8"/>
<rect x="413" y="12" width="8" height="8"/>
<rect x="389" y="20" width="8" height="8"/>
<rect x="421" y="20" width="8" height="8"/>
<rect x="389" y="28" width="8" height="8"/>
<rect x="421" y="28" width="8" height="8"/>
<rect x="389" y="36" width="8" height="8"/>
<rect x="397" y="36" width="8" height="8"/>
<rect x="405" y="36" width="8" height="8"/>
<rect x="413" y="36" width="8" height="8"/>
<rect x="389" y="44" width="8" height="8"/>
<rect x="389" y="52" width="8" height="8"/>
<rect x="389" y="60" width="8" height="8"/>
<rect x="431" y="12" width="8" height="8"/>
<rect x="439" y="12" width="8" height="8"/>
<rect x="447" y="12" width="8" height="8"/>
<rect x="455" y="12" width="8" height="8"/>
<rect x="431" y="20" width="8" height="8"/>
<rect x="463" y="20" width="8" height="8"/>
<rect x="431" y="28" width="8" height="8"/>
<rect x="463" y="28" width="8" height="8"/>
<rect x="431" y="36" width="8" height="8"/>
<rect x="439" y="36" width="8" height="8"/>
<rect x="447" y="36" width="8" height="8"/>
<rect x="455" y="36" width="8" height="8"/>
<rect x="431" y="44" width="8" height="8"/>
<rect x="447" y="44" width="8" height="8"/>
<rect x="431" y="52" width="8" height="8"/>
<rect x="455" y="52" width="8" height="8"/>
<rect x="431" y="60" width="8" height="8"/>
<rect x="463" y="60" width="8" height="8"/>
<rect x="481" y="12" width="8" height="8"/>
<rect x="489" y="12" width="8" height="8"/>
<rect x="497" y="12" width="8" height="8"/>
<rect x="473" y="20" width="8" height="8"/>
<rect x="505" y="20" width="8" height="8"/>
<rect x="473" y="28" width="8" height="8"/>
<rect x="505" y="28" width="8" height="8"/>
<rect x="473" y="36" width="8" height="8"/>
<rect x="505" y="36" width="8" height="8"/>
<rect x="473" y="44" width="8" height="8"/>
<rect x="505" y="44" width="8" height="8"/>
<rect x="473" y="52" width="8" height="8"/>
<rect x="505" y="52" width="8" height="8"/>
<rect x="481" y="60" width="8" height="8"/>
<rect x="489" y="60" width="8" height="8"/>
<rect x="497" y="60" width="8" height="8"/>
<rect x="515" y="12" width="8" height="8"/>
<rect x="523" y="12" width="8" height="8"/>
<rect x="531" y="12" width="8" height="8"/>
<rect x="539" y="12" width="8" height="8"/>
<rect x="547" y="12" width="8" height="8"/>
<rect x="515" y="20" width="8" height="8"/>
<rect x="515" y="28" width="8" height="8"/>
<rect x="515" y="36" width="8" height="8"/>
<rect x="523" y="36" width="8" height="8"/>
<rect x="531" y="36" width="8" height="8"/>
<rect x="539" y="36" width="8" height="8"/>
<rect x="515" y="44" width="8" height="8"/>
<rect x="515" y="52" width="8" height="8"/>
<rect x="515" y="60" width="8" height="8"/>
<rect x="557" y="12" width="8" height="8"/>
<rect x="565" y="12" width="8" height="8"/>
<rect x="573" y="12" width="8" height="8"/>
<rect x="581" y="12" width="8" height="8"/>
<rect x="589" y="12" width="8" height="8"/>
<rect x="573" y="20" width="8" height="8"/>
<rect x="573" y="28" width="8" height="8"/>
<rect x="573" y="36" width="8" height="8"/>
<rect x="573" y="44" width="8" height="8"/>
<rect x="573" y="52" width="8" height="8"/>
<rect x="557" y="60" width="8" height="8"/>
<rect x="565" y="60" width="8" height="8"/>
<rect x="573" y="60" width="8" height="8"/>
<rect x="581" y="60" width="8" height="8"/>
<rect x="589" y="60" width="8" height="8"/>
<rect x="599" y="12" width="8" height="8"/>
<rect x="599" y="20" width="8" height="8"/>
<rect x="599" y="28" width="8" height="8"/>
<rect x="599" y="36" width="8" height="8"/>
<rect x="599" y="44" width="8" height="8"/>
<rect x="599" y="52" width="8" height="8"/>
<rect x="599" y="60" width="8" height="8"/>
<rect x="607" y="60" width="8" height="8"/>
<rect x="615" y="60" width="8" height="8"/>
<rect x="623" y="60" width="8" height="8"/>
<rect x="631" y="60" width="8" height="8"/>
<rect x="641" y="12" width="8" height="8"/>
<rect x="649" y="12" width="8" height="8"/>
<rect x="657" y="12" width="8" height="8"/>
<rect x="665" y="12" width="8" height="8"/>
<rect x="673" y="12" width="8" height="8"/>
<rect x="641" y="20" width="8" height="8"/>
<rect x="641" y="28" width="8" height="8"/>
<rect x="641" y="36" width="8" height="8"/>
<rect x="649" y="36" width="8" height="8"/>
<rect x="657" y="36" width="8" height="8"/>
<rect x="665" y="36" width="8" height="8"/>
<rect x="641" y="44" width="8" height="8"/>
<rect x="641" y="52" width="8" height="8"/>
<rect x="641" y="60" width="8" height="8"/>
<rect x="649" y="60" width="8" height="8"/>
<rect x="657" y="60" width="8" height="8"/>
<rect x="665" y="60" width="8" height="8"/>
<rect x="673" y="60" width="8" height="8"/>
</g>
<rect x="180" y="13" width="2" height="2" fill="#c8ffd7" opacity="0.24"/>
<rect x="188" y="13" width="2" height="2" fill="#c8ffd7" opacity="0.24"/>
<rect x="196" y="13" width="2" height="2" fill="#c8ffd7" opacity="0.24"/>
<rect x="204" y="13" width="2" height="2" fill="#c8ffd7" opacity="0.24"/>
<rect x="212" y="13" width="2" height="2" fill="#c8ffd7" opacity="0.24"/>
<rect x="180" y="21" width="2" height="2" fill="#c8ffd7" opacity="0.24"/>
<rect x="180" y="29" width="2" height="2" fill="#c8ffd7" opacity="0.24"/>
<rect x="180" y="37" width="2" height="2" fill="#c8ffd7" opacity="0.24"/>
<rect x="188" y="37" width="2" height="2" fill="#c8ffd7" opacity="0.24"/>
<rect x="196" y="37" width="2" height="2" fill="#c8ffd7" opacity="0.24"/>
<rect x="204" y="37" width="2" height="2" fill="#c8ffd7" opacity="0.24"/>
<rect x="180" y="45" width="2" height="2" fill="#c8ffd7" opacity="0.24"/>
<rect x="180" y="53" width="2" height="2" fill="#c8ffd7" opacity="0.24"/>
<rect x="180" y="61" width="2" height="2" fill="#c8ffd7" opacity="0.24"/>
<rect x="188" y="61" width="2" height="2" fill="#c8ffd7" opacity="0.24"/>
<rect x="196" y="61" width="2" height="2" fill="#c8ffd7" opacity="0.24"/>
<rect x="204" y="61" width="2" height="2" fill="#c8ffd7" opacity="0.24"/>
<rect x="212" y="61" width="2" height="2" fill="#c8ffd7" opacity="0.24"/>
<rect x="222" y="13" width="2" height="2" fill="#c8ffd7" opacity="0.24"/>
<rect x="254" y="13" width="2" height="2" fill="#c8ffd7" opacity="0.24"/>
<rect x="222" y="21" width="2" height="2" fill="#c8ffd7" opacity="0.24"/>
<rect x="254" y="21" width="2" height="2" fill="#c8ffd7" opacity="0.24"/>
<rect x="230" y="29" width="2" height="2" fill="#c8ffd7" opacity="0.24"/>
<rect x="246" y="29" width="2" height="2" fill="#c8ffd7" opacity="0.24"/>
<rect x="238" y="37" width="2" height="2" fill="#c8ffd7" opacity="0.24"/>
<rect x="230" y="45" width="2" height="2" fill="#c8ffd7" opacity="0.24"/>
<rect x="246" y="45" width="2" height="2" fill="#c8ffd7" opacity="0.24"/>
<rect x="222" y="53" width="2" height="2" fill="#c8ffd7" opacity="0.24"/>
<rect x="254" y="53" width="2" height="2" fill="#c8ffd7" opacity="0.24"/>
<rect x="222" y="61" width="2" height="2" fill="#c8ffd7" opacity="0.24"/>
<rect x="254" y="61" width="2" height="2" fill="#c8ffd7" opacity="0.24"/>
<rect x="264" y="13" width="2" height="2" fill="#c8ffd7" opacity="0.24"/>
<rect x="272" y="13" width="2" height="2" fill="#c8ffd7" opacity="0.24"/>
<rect x="280" y="13" width="2" height="2" fill="#c8ffd7" opacity="0.24"/>
<rect x="288" y="13" width="2" height="2" fill="#c8ffd7" opacity="0.24"/>
<rect x="296" y="13" width="2" height="2" fill="#c8ffd7" opacity="0.24"/>
<rect x="280" y="21" width="2" height="2" fill="#c8ffd7" opacity="0.24"/>
<rect x="280" y="29" width="2" height="2" fill="#c8ffd7" opacity="0.24"/>
<rect x="280" y="37" width="2" height="2" fill="#c8ffd7" opacity="0.24"/>
<rect x="280" y="45" width="2" height="2" fill="#c8ffd7" opacity="0.24"/>
<rect x="280" y="53" width="2" height="2" fill="#c8ffd7" opacity="0.24"/>
<rect x="264" y="61" width="2" height="2" fill="#c8ffd7" opacity="0.24"/>
<rect x="272" y="61" width="2" height="2" fill="#c8ffd7" opacity="0.24"/>
<rect x="280" y="61" width="2" height="2" fill="#c8ffd7" opacity="0.24"/>
<rect x="288" y="61" width="2" height="2" fill="#c8ffd7" opacity="0.24"/>
<rect x="296" y="61" width="2" height="2" fill="#c8ffd7" opacity="0.24"/>
<rect x="306" y="13" width="2" height="2" fill="#c8ffd7" opacity="0.24"/>
<rect x="314" y="13" width="2" height="2" fill="#c8ffd7" opacity="0.24"/>
<rect x="322" y="13" width="2" height="2" fill="#c8ffd7" opacity="0.24"/>
<rect x="330" y="13" width="2" height="2" fill="#c8ffd7" opacity="0.24"/>
<rect x="338" y="13" width="2" height="2" fill="#c8ffd7" opacity="0.24"/>
<rect x="322" y="21" width="2" height="2" fill="#c8ffd7" opacity="0.24"/>
<rect x="322" y="29" width="2" height="2" fill="#c8ffd7" opacity="0.24"/>
<rect x="322" y="37" width="2" height="2" fill="#c8ffd7" opacity="0.24"/>
<rect x="322" y="45" width="2" height="2" fill="#c8ffd7" opacity="0.24"/>
<rect x="322" y="53" width="2" height="2" fill="#c8ffd7" opacity="0.24"/>
<rect x="322" y="61" width="2" height="2" fill="#c8ffd7" opacity="0.24"/>
<rect x="390" y="13" width="2" height="2" fill="#c8ffd7" opacity="0.24"/>
<rect x="398" y="13" width="2" height="2" fill="#c8ffd7" opacity="0.24"/>
<rect x="406" y="13" width="2" height="2" fill="#c8ffd7" opacity="0.24"/>
<rect x="414" y="13" width="2" height="2" fill="#c8ffd7" opacity="0.24"/>
<rect x="390" y="21" width="2" height="2" fill="#c8ffd7" opacity="0.24"/>
<rect x="422" y="21" width="2" height="2" fill="#c8ffd7" opacity="0.24"/>
<rect x="390" y="29" width="2" height="2" fill="#c8ffd7" opacity="0.24"/>
<rect x="422" y="29" width="2" height="2" fill="#c8ffd7" opacity="0.24"/>
<rect x="390" y="37" width="2" height="2" fill="#c8ffd7" opacity="0.24"/>
<rect x="398" y="37" width="2" height="2" fill="#c8ffd7" opacity="0.24"/>
<rect x="406" y="37" width="2" height="2" fill="#c8ffd7" opacity="0.24"/>
<rect x="414" y="37" width="2" height="2" fill="#c8ffd7" opacity="0.24"/>
<rect x="390" y="45" width="2" height="2" fill="#c8ffd7" opacity="0.24"/>
<rect x="390" y="53" width="2" height="2" fill="#c8ffd7" opacity="0.24"/>
<rect x="390" y="61" width="2" height="2" fill="#c8ffd7" opacity="0.24"/>
<rect x="432" y="13" width="2" height="2" fill="#c8ffd7" opacity="0.24"/>
<rect x="440" y="13" width="2" height="2" fill="#c8ffd7" opacity="0.24"/>
<rect x="448" y="13" width="2" height="2" fill="#c8ffd7" opacity="0.24"/>
<rect x="456" y="13" width="2" height="2" fill="#c8ffd7" opacity="0.24"/>
<rect x="432" y="21" width="2" height="2" fill="#c8ffd7" opacity="0.24"/>
<rect x="464" y="21" width="2" height="2" fill="#c8ffd7" opacity="0.24"/>
<rect x="432" y="29" width="2" height="2" fill="#c8ffd7" opacity="0.24"/>
<rect x="464" y="29" width="2" height="2" fill="#c8ffd7" opacity="0.24"/>
<rect x="432" y="37" width="2" height="2" fill="#c8ffd7" opacity="0.24"/>
<rect x="440" y="37" width="2" height="2" fill="#c8ffd7" opacity="0.24"/>
<rect x="448" y="37" width="2" height="2" fill="#c8ffd7" opacity="0.24"/>
<rect x="456" y="37" width="2" height="2" fill="#c8ffd7" opacity="0.24"/>
<rect x="432" y="45" width="2" height="2" fill="#c8ffd7" opacity="0.24"/>
<rect x="448" y="45" width="2" height="2" fill="#c8ffd7" opacity="0.24"/>
<rect x="432" y="53" width="2" height="2" fill="#c8ffd7" opacity="0.24"/>
<rect x="456" y="53" width="2" height="2" fill="#c8ffd7" opacity="0.24"/>
<rect x="432" y="61" width="2" height="2" fill="#c8ffd7" opacity="0.24"/>
<rect x="464" y="61" width="2" height="2" fill="#c8ffd7" opacity="0.24"/>
<rect x="482" y="13" width="2" height="2" fill="#c8ffd7" opacity="0.24"/>
<rect x="490" y="13" width="2" height="2" fill="#c8ffd7" opacity="0.24"/>
<rect x="498" y="13" width="2" height="2" fill="#c8ffd7" opacity="0.24"/>
<rect x="474" y="21" width="2" height="2" fill="#c8ffd7" opacity="0.24"/>
<rect x="506" y="21" width="2" height="2" fill="#c8ffd7" opacity="0.24"/>
<rect x="474" y="29" width="2" height="2" fill="#c8ffd7" opacity="0.24"/>
<rect x="506" y="29" width="2" height="2" fill="#c8ffd7" opacity="0.24"/>
<rect x="474" y="37" width="2" height="2" fill="#c8ffd7" opacity="0.24"/>
<rect x="506" y="37" width="2" height="2" fill="#c8ffd7" opacity="0.24"/>
<rect x="474" y="45" width="2" height="2" fill="#c8ffd7" opacity="0.24"/>
<rect x="506" y="45" width="2" height="2" fill="#c8ffd7" opacity="0.24"/>
<rect x="474" y="53" width="2" height="2" fill="#c8ffd7" opacity="0.24"/>
<rect x="506" y="53" width="2" height="2" fill="#c8ffd7" opacity="0.24"/>
<rect x="482" y="61" width="2" height="2" fill="#c8ffd7" opacity="0.24"/>
<rect x="490" y="61" width="2" height="2" fill="#c8ffd7" opacity="0.24"/>
<rect x="498" y="61" width="2" height="2" fill="#c8ffd7" opacity="0.24"/>
<rect x="516" y="13" width="2" height="2" fill="#c8ffd7" opacity="0.24"/>
<rect x="524" y="13" width="2" height="2" fill="#c8ffd7" opacity="0.24"/>
<rect x="532" y="13" width="2" height="2" fill="#c8ffd7" opacity="0.24"/>
<rect x="540" y="13" width="2" height="2" fill="#c8ffd7" opacity="0.24"/>
<rect x="548" y="13" width="2" height="2" fill="#c8ffd7" opacity="0.24"/>
<rect x="516" y="21" width="2" height="2" fill="#c8ffd7" opacity="0.24"/>
<rect x="516" y="29" width="2" height="2" fill="#c8ffd7" opacity="0.24"/>
<rect x="516" y="37" width="2" height="2" fill="#c8ffd7" opacity="0.24"/>
<rect x="524" y="37" width="2" height="2" fill="#c8ffd7" opacity="0.24"/>
<rect x="532" y="37" width="2" height="2" fill="#c8ffd7" opacity="0.24"/>
<rect x="540" y="37" width="2" height="2" fill="#c8ffd7" opacity="0.24"/>
<rect x="516" y="45" width="2" height="2" fill="#c8ffd7" opacity="0.24"/>
<rect x="516" y="53" width="2" height="2" fill="#c8ffd7" opacity="0.24"/>
<rect x="516" y="61" width="2" height="2" fill="#c8ffd7" opacity="0.24"/>
<rect x="558" y="13" width="2" height="2" fill="#c8ffd7" opacity="0.24"/>
<rect x="566" y="13" width="2" height="2" fill="#c8ffd7" opacity="0.24"/>
<rect x="574" y="13" width="2" height="2" fill="#c8ffd7" opacity="0.24"/>
<rect x="582" y="13" width="2" height="2" fill="#c8ffd7" opacity="0.24"/>
<rect x="590" y="13" width="2" height="2" fill="#c8ffd7" opacity="0.24"/>
<rect x="574" y="21" width="2" height="2" fill="#c8ffd7" opacity="0.24"/>
<rect x="574" y="29" width="2" height="2" fill="#c8ffd7" opacity="0.24"/>
<rect x="574" y="37" width="2" height="2" fill="#c8ffd7" opacity="0.24"/>
<rect x="574" y="45" width="2" height="2" fill="#c8ffd7" opacity="0.24"/>
<rect x="574" y="53" width="2" height="2" fill="#c8ffd7" opacity="0.24"/>
<rect x="558" y="61" width="2" height="2" fill="#c8ffd7" opacity="0.24"/>
<rect x="566" y="61" width="2" height="2" fill="#c8ffd7" opacity="0.24"/>
<rect x="574" y="61" width="2" height="2" fill="#c8ffd7" opacity="0.24"/>
<rect x="582" y="61" width="2" height="2" fill="#c8ffd7" opacity="0.24"/>
<rect x="590" y="61" width="2" height="2" fill="#c8ffd7" opacity="0.24"/>
<rect x="600" y="13" width="2" height="2" fill="#c8ffd7" opacity="0.24"/>
<rect x="600" y="21" width="2" height="2" fill="#c8ffd7" opacity="0.24"/>
<rect x="600" y="29" width="2" height="2" fill="#c8ffd7" opacity="0.24"/>
<rect x="600" y="37" width="2" height="2" fill="#c8ffd7" opacity="0.24"/>
<rect x="600" y="45" width="2" height="2" fill="#c8ffd7" opacity="0.24"/>
<rect x="600" y="53" width="2" height="2" fill="#c8ffd7" opacity="0.24"/>
<rect x="600" y="61" width="2" height="2" fill="#c8ffd7" opacity="0.24"/>
<rect x="608" y="61" width="2" height="2" fill="#c8ffd7" opacity="0.24"/>
<rect x="616" y="61" width="2" height="2" fill="#c8ffd7" opacity="0.24"/>
<rect x="624" y="61" width="2" height="2" fill="#c8ffd7" opacity="0.24"/>
<rect x="632" y="61" width="2" height="2" fill="#c8ffd7" opacity="0.24"/>
<rect x="642" y="13" width="2" height="2" fill="#c8ffd7" opacity="0.24"/>
<rect x="650" y="13" width="2" height="2" fill="#c8ffd7" opacity="0.24"/>
<rect x="658" y="13" width="2" height="2" fill="#c8ffd7" opacity="0.24"/>
<rect x="666" y="13" width="2" height="2" fill="#c8ffd7" opacity="0.24"/>
<rect x="674" y="13" width="2" height="2" fill="#c8ffd7" opacity="0.24"/>
<rect x="642" y="21" width="2" height="2" fill="#c8ffd7" opacity="0.24"/>
<rect x="642" y="29" width="2" height="2" fill="#c8ffd7" opacity="0.24"/>
<rect x="642" y="37" width="2" height="2" fill="#c8ffd7" opacity="0.24"/>
<rect x="650" y="37" width="2" height="2" fill="#c8ffd7" opacity="0.24"/>
<rect x="658" y="37" width="2" height="2" fill="#c8ffd7" opacity="0.24"/>
<rect x="666" y="37" width="2" height="2" fill="#c8ffd7" opacity="0.24"/>
<rect x="642" y="45" width="2" height="2" fill="#c8ffd7" opacity="0.24"/>
<rect x="642" y="53" width="2" height="2" fill="#c8ffd7" opacity="0.24"/>
<rect x="642" y="61" width="2" height="2" fill="#c8ffd7" opacity="0.24"/>
<rect x="650" y="61" width="2" height="2" fill="#c8ffd7" opacity="0.24"/>
<rect x="658" y="61" width="2" height="2" fill="#c8ffd7" opacity="0.24"/>
<rect x="666" y="61" width="2" height="2" fill="#c8ffd7" opacity="0.24"/>
<rect x="674" y="61" width="2" height="2" fill="#c8ffd7" opacity="0.24"/>

<g fill="#00d23c" opacity="0.7">
<rect x="222" y="72" width="4" height="4"/>
<rect x="226" y="72" width="4" height="4"/>
<rect x="230" y="72" width="4" height="4"/>
<rect x="234" y="72" width="4" height="4"/>
<rect x="238" y="72" width="4" height="4"/>
<rect x="230" y="76" width="4" height="4"/>
<rect x="230" y="80" width="4" height="4"/>
<rect x="230" y="84" width="4" height="4"/>
<rect x="230" y="88" width="4" height="4"/>
<rect x="230" y="92" width="4" height="4"/>
<rect x="230" y="96" width="4" height="4"/>
<rect x="244" y="72" width="4" height="4"/>
<rect x="260" y="72" width="4" height="4"/>
<rect x="244" y="76" width="4" height="4"/>
<rect x="260" y="76" width="4" height="4"/>
<rect x="244" y="80" width="4" height="4"/>
<rect x="260" y="80" width="4" height="4"/>
<rect x="244" y="84" width="4" height="4"/>
<rect x="248" y="84" width="4" height="4"/>
<rect x="252" y="84" width="4" height="4"/>
<rect x="256" y="84" width="4" height="4"/>
<rect x="260" y="84" width="4" height="4"/>
<rect x="244" y="88" width="4" height="4"/>
<rect x="260" y="88" width="4" height="4"/>
<rect x="244" y="92" width="4" height="4"/>
<rect x="260" y="92" width="4" height="4"/>
<rect x="244" y="96" width="4" height="4"/>
<rect x="260" y="96" width="4" height="4"/>
<rect x="270" y="72" width="4" height="4"/>
<rect x="274" y="72" width="4" height="4"/>
<rect x="278" y="72" width="4" height="4"/>
<rect x="266" y="76" width="4" height="4"/>
<rect x="282" y="76" width="4" height="4"/>
<rect x="266" y="80" width="4" height="4"/>
<rect x="282" y="80" width="4" height="4"/>
<rect x="266" y="84" width="4" height="4"/>
<rect x="270" y="84" width="4" height="4"/>
<rect x="274" y="84" width="4" height="4"/>
<rect x="278" y="84" width="4" height="4"/>
<rect x="282" y="84" width="4" height="4"/>
<rect x="266" y="88" width="4" height="4"/>
<rect x="282" y="88" width="4" height="4"/>
<rect x="266" y="92" width="4" height="4"/>
<rect x="282" y="92" width="4" height="4"/>
<rect x="266" y="96" width="4" height="4"/>
<rect x="282" y="96" width="4" height="4"/>
<rect x="288" y="72" width="4" height="4"/>
<rect x="304" y="72" width="4" height="4"/>
<rect x="288" y="76" width="4" height="4"/>
<rect x="292" y="76" width="4" height="4"/>
<rect x="304" y="76" width="4" height="4"/>
<rect x="288" y="80" width="4" height="4"/>
<rect x="296" y="80" width="4" height="4"/>
<rect x="304" y="80" width="4" height="4"/>
<rect x="288" y="84" width="4" height="4"/>
<rect x="300" y="84" width="4" height="4"/>
<rect x="304" y="84" width="4" height="4"/>
<rect x="288" y="88" width="4" height="4"/>
<rect x="304" y="88" width="4" height="4"/>
<rect x="288" y="92" width="4" height="4"/>
<rect x="304" y="92" width="4" height="4"/>
<rect x="288" y="96" width="4" height="4"/>
<rect x="304" y="96" width="4" height="4"/>
<rect x="310" y="72" width="4" height="4"/>
<rect x="326" y="72" width="4" height="4"/>
<rect x="310" y="76" width="4" height="4"/>
<rect x="322" y="76" width="4" height="4"/>
<rect x="310" y="80" width="4" height="4"/>
<rect x="318" y="80" width="4" height="4"/>
<rect x="310" y="84" width="4" height="4"/>
<rect x="314" y="84" width="4" height="4"/>
<rect x="310" y="88" width="4" height="4"/>
<rect x="318" y="88" width="4" height="4"/>
<rect x="310" y="92" width="4" height="4"/>
<rect x="322" y="92" width="4" height="4"/>
<rect x="310" y="96" width="4" height="4"/>
<rect x="326" y="96" width="4" height="4"/>
<rect x="336" y="72" width="4" height="4"/>
<rect x="340" y="72" width="4" height="4"/>
<rect x="344" y="72" width="4" height="4"/>
<rect x="348" y="72" width="4" height="4"/>
<rect x="332" y="76" width="4" height="4"/>
<rect x="332" y="80" width="4" height="4"/>
<rect x="336" y="84" width="4" height="4"/>
<rect x="340" y="84" width="4" height="4"/>
<rect x="344" y="84" width="4" height="4"/>
<rect x="348" y="88" width="4" height="4"/>
<rect x="348" y="92" width="4" height="4"/>
<rect x="332" y="96" width="4" height="4"/>
<rect x="336" y="96" width="4" height="4"/>
<rect x="340" y="96" width="4" height="4"/>
<rect x="344" y="96" width="4" height="4"/>
<rect x="376" y="72" width="4" height="4"/>
<rect x="380" y="72" width="4" height="4"/>
<rect x="384" y="72" width="4" height="4"/>
<rect x="388" y="72" width="4" height="4"/>
<rect x="392" y="72" width="4" height="4"/>
<rect x="376" y="76" width="4" height="4"/>
<rect x="376" y="80" width="4" height="4"/>
<rect x="376" y="84" width="4" height="4"/>
<rect x="380" y="84" width="4" height="4"/>
<rect x="384" y="84" width="4" height="4"/>
<rect x="388" y="84" width="4" height="4"/>
<rect x="376" y="88" width="4" height="4"/>
<rect x="376" y="92" width="4" height="4"/>
<rect x="376" y="96" width="4" height="4"/>
<rect x="402" y="72" width="4" height="4"/>
<rect x="406" y="72" width="4" height="4"/>
<rect x="410" y="72" width="4" height="4"/>
<rect x="398" y="76" width="4" height="4"/>
<rect x="414" y="76" width="4" height="4"/>
<rect x="398" y="80" width="4" height="4"/>
<rect x="414" y="80" width="4" height="4"/>
<rect x="398" y="84" width="4" height="4"/>
<rect x="414" y="84" width="4" height="4"/>
<rect x="398" y="88" width="4" height="4"/>
<rect x="414" y="88" width="4" height="4"/>
<rect x="398" y="92" width="4" height="4"/>
<rect x="414" y="92" width="4" height="4"/>
<rect x="402" y="96" width="4" height="4"/>
<rect x="406" y="96" width="4" height="4"/>
<rect x="410" y="96" width="4" height="4"/>
<rect x="420" y="72" width="4" height="4"/>
<rect x="424" y="72" width="4" height="4"/>
<rect x="428" y="72" width="4" height="4"/>
<rect x="432" y="72" width="4" height="4"/>
<rect x="420" y="76" width="4" height="4"/>
<rect x="436" y="76" width="4" height="4"/>
<rect x="420" y="80" width="4" height="4"/>
<rect x="436" y="80" width="4" height="4"/>
<rect x="420" y="84" width="4" height="4"/>
<rect x="424" y="84" width="4" height="4"/>
<rect x="428" y="84" width="4" height="4"/>
<rect x="432" y="84" width="4" height="4"/>
<rect x="420" y="88" width="4" height="4"/>
<rect x="428" y="88" width="4" height="4"/>
<rect x="420" y="92" width="4" height="4"/>
<rect x="432" y="92" width="4" height="4"/>
<rect x="420" y="96" width="4" height="4"/>
<rect x="436" y="96" width="4" height="4"/>
<rect x="464" y="72" width="4" height="4"/>
<rect x="480" y="72" width="4" height="4"/>
<rect x="464" y="76" width="4" height="4"/>
<rect x="480" y="76" width="4" height="4"/>
<rect x="464" y="80" width="4" height="4"/>
<rect x="480" y="80" width="4" height="4"/>
<rect x="464" y="84" width="4" height="4"/>
<rect x="480" y="84" width="4" height="4"/>
<rect x="468" y="88" width="4" height="4"/>
<rect x="476" y="88" width="4" height="4"/>
<rect x="468" y="92" width="4" height="4"/>
<rect x="476" y="92" width="4" height="4"/>
<rect x="472" y="96" width="4" height="4"/>
<rect x="486" y="72" width="4" height="4"/>
<rect x="490" y="72" width="4" height="4"/>
<rect x="494" y="72" width="4" height="4"/>
<rect x="498" y="72" width="4" height="4"/>
<rect x="502" y="72" width="4" height="4"/>
<rect x="494" y="76" width="4" height="4"/>
<rect x="494" y="80" width="4" height="4"/>
<rect x="494" y="84" width="4" height="4"/>
<rect x="494" y="88" width="4" height="4"/>
<rect x="494" y="92" width="4" height="4"/>
<rect x="486" y="96" width="4" height="4"/>
<rect x="490" y="96" width="4" height="4"/>
<rect x="494" y="96" width="4" height="4"/>
<rect x="498" y="96" width="4" height="4"/>
<rect x="502" y="96" width="4" height="4"/>
<rect x="512" y="72" width="4" height="4"/>
<rect x="516" y="72" width="4" height="4"/>
<rect x="520" y="72" width="4" height="4"/>
<rect x="524" y="72" width="4" height="4"/>
<rect x="508" y="76" width="4" height="4"/>
<rect x="508" y="80" width="4" height="4"/>
<rect x="512" y="84" width="4" height="4"/>
<rect x="516" y="84" width="4" height="4"/>
<rect x="520" y="84" width="4" height="4"/>
<rect x="524" y="88" width="4" height="4"/>
<rect x="524" y="92" width="4" height="4"/>
<rect x="508" y="96" width="4" height="4"/>
<rect x="512" y="96" width="4" height="4"/>
<rect x="516" y="96" width="4" height="4"/>
<rect x="520" y="96" width="4" height="4"/>
<rect x="530" y="72" width="4" height="4"/>
<rect x="534" y="72" width="4" height="4"/>
<rect x="538" y="72" width="4" height="4"/>
<rect x="542" y="72" width="4" height="4"/>
<rect x="546" y="72" width="4" height="4"/>
<rect x="538" y="76" width="4" height="4"/>
<rect x="538" y="80" width="4" height="4"/>
<rect x="538" y="84" width="4" height="4"/>
<rect x="538" y="88" width="4" height="4"/>
<rect x="538" y="92" width="4" height="4"/>
<rect x="530" y="96" width="4" height="4"/>
<rect x="534" y="96" width="4" height="4"/>
<rect x="538" y="96" width="4" height="4"/>
<rect x="542" y="96" width="4" height="4"/>
<rect x="546" y="96" width="4" height="4"/>
<rect x="552" y="72" width="4" height="4"/>
<rect x="556" y="72" width="4" height="4"/>
<rect x="560" y="72" width="4" height="4"/>
<rect x="564" y="72" width="4" height="4"/>
<rect x="568" y="72" width="4" height="4"/>
<rect x="560" y="76" width="4" height="4"/>
<rect x="560" y="80" width="4" height="4"/>
<rect x="560" y="84" width="4" height="4"/>
<rect x="560" y="88" width="4" height="4"/>
<rect x="560" y="92" width="4" height="4"/>
<rect x="560" y="96" width="4" height="4"/>
<rect x="574" y="72" width="4" height="4"/>
<rect x="578" y="72" width="4" height="4"/>
<rect x="582" y="72" width="4" height="4"/>
<rect x="586" y="72" width="4" height="4"/>
<rect x="590" y="72" width="4" height="4"/>
<rect x="582" y="76" width="4" height="4"/>
<rect x="582" y="80" width="4" height="4"/>
<rect x="582" y="84" width="4" height="4"/>
<rect x="582" y="88" width="4" height="4"/>
<rect x="582" y="92" width="4" height="4"/>
<rect x="574" y="96" width="4" height="4"/>
<rect x="578" y="96" width="4" height="4"/>
<rect x="582" y="96" width="4" height="4"/>
<rect x="586" y="96" width="4" height="4"/>
<rect x="590" y="96" width="4" height="4"/>
<rect x="596" y="72" width="4" height="4"/>
<rect x="612" y="72" width="4" height="4"/>
<rect x="596" y="76" width="4" height="4"/>
<rect x="600" y="76" width="4" height="4"/>
<rect x="612" y="76" width="4" height="4"/>
<rect x="596" y="80" width="4" height="4"/>
<rect x="604" y="80" width="4" height="4"/>
<rect x="612" y="80" width="4" height="4"/>
<rect x="596" y="84" width="4" height="4"/>
<rect x="608" y="84" width="4" height="4"/>
<rect x="612" y="84" width="4" height="4"/>
<rect x="596" y="88" width="4" height="4"/>
<rect x="612" y="88" width="4" height="4"/>
<rect x="596" y="92" width="4" height="4"/>
<rect x="612" y="92" width="4" height="4"/>
<rect x="596" y="96" width="4" height="4"/>
<rect x="612" y="96" width="4" height="4"/>
<rect x="622" y="72" width="4" height="4"/>
<rect x="626" y="72" width="4" height="4"/>
<rect x="630" y="72" width="4" height="4"/>
<rect x="634" y="72" width="4" height="4"/>
<rect x="618" y="76" width="4" height="4"/>
<rect x="618" y="80" width="4" height="4"/>
<rect x="618" y="84" width="4" height="4"/>
<rect x="626" y="84" width="4" height="4"/>
<rect x="630" y="84" width="4" height="4"/>
<rect x="634" y="84" width="4" height="4"/>
<rect x="618" y="88" width="4" height="4"/>
<rect x="634" y="88" width="4" height="4"/>
<rect x="618" y="92" width="4" height="4"/>
<rect x="634" y="92" width="4" height="4"/>
<rect x="622" y="96" width="4" height="4"/>
<rect x="626" y="96" width="4" height="4"/>
<rect x="630" y="96" width="4" height="4"/>
<rect x="634" y="96" width="4" height="4"/>
</g>

<rect class="fc" x="644" y="72" width="3" height="27" fill="#00ff41"/>
</svg>