<svg xmlns="http://www.w3.org/2000/svg" width="860" height="193" viewBox="0 0 860 193">
<defs>
  <style>
    .st{animation:sg 2.8s ease-in-out infinite;}
    @keyframes sg{
      0%,100%{filter:drop-shadow(0 0 3px #00ff41) drop-shadow(0 0 6px #00ff41);}
      50%{filter:drop-shadow(0 0 7px #00ff41) drop-shadow(0 0 15px #00ff41);}
    }
  </style>
</defs>
<rect width="860" height="193" fill="#050a05"/>
<rect x="0" y="0" width="860" height="1" fill="#000" opacity="0.07"/><rect x="0" y="2" width="860" height="1" fill="#000" opacity="0.07"/><rect x="0" y="4" width="860" height="1" fill="#000" opacity="0.07"/><rect x="0" y="6" width="860" height="1" fill="#000" opacity="0.07"/><rect x="0" y="8" width="860" height="1" fill="#000" opacity="0.07"/><rect x="0" y="10" width="860" height="1" fill="#000" opacity="0.07"/><rect x="0" y="12" width="860" height="1" fill="#000" opacity="0.07"/><rect x="0" y="14" width="860" height="1" fill="#000" opacity="0.07"/><rect x="0" y="16" width="860" height="1" fill="#000" opacity="0.07"/><rect x="0" y="18" width="860" height="1" fill="#000" opacity="0.07"/><rect x="0" y="20" width="860" height="1" fill="#000" opacity="0.07"/><rect x="0" y="22" width="860" height="1" fill="#000" opacity="0.07"/><rect x="0" y="24" width="860" height="1" fill="#000" opacity="0.07"/><rect x="0" y="26" width="860" height="1" fill="#000" opacity="0.07"/><rect x="0" y="28" width="860" height="1" fill="#000" opacity="0.07"/><rect x="0" y="30" width="860" height="1" fill="#000" opacity="0.07"/><rect x="0" y="32" width="860" height="1" fill="#000" opacity="0.07"/><rect x="0" y="34" width="860" height="1" fill="#000" opacity="0.07"/><rect x="0" y="36" width="860" height="1" fill="#000" opacity="0.07"/><rect x="0" y="38" width="860" height="1" fill="#000" opacity="0.07"/><rect x="0" y="40" width="860" height="1" fill="#000" opacity="0.07"/><rect x="0" y="42" width="860" height="1" fill="#000" opacity="0.07"/><rect x="0" y="44" width="860" height="1" fill="#000" opacity="0.07"/><rect x="0" y="46" width="860" height="1" fill="#000" opacity="0.07"/><rect x="0" y="48" width="860" height="1" fill="#000" opacity="0.07"/><rect x="0" y="50" width="860" height="1" fill="#000" opacity="0.07"/><rect x="0" y="52" width="860" height="1" fill="#000" opacity="0.07"/><rect x="0" y="54" width="860" height="1" fill="#000" opacity="0.07"/><rect x="0" y="56" width="860" height="1" fill="#000" opacity="0.07"/><rect x="0" y="58" width="860" height="1" fill="#000" opacity="0.07"/><rect x="0" y="60" width="860" height="1" fill="#000" opacity="0.07"/><rect x="0" y="62" width="860" height="1" fill="#000" opacity="0.07"/><rect x="0" y="64" width="860" height="1" fill="#000" opacity="0.07"/><rect x="0" y="66" width="860" height="1" fill="#000" opacity="0.07"/><rect x="0" y="68" width="860" height="1" fill="#000" opacity="0.07"/><rect x="0" y="70" width="860" height="1" fill="#000" opacity="0.07"/><rect x="0" y="72" width="860" height="1" fill="#000" opacity="0.07"/><rect x="0" y="74" width="860" height="1" fill="#000" opacity="0.07"/><rect x="0" y="76" width="860" height="1" fill="#000" opacity="0.07"/><rect x="0" y="78" width="860" height="1" fill="#000" opacity="0.07"/><rect x="0" y="80" width="860" height="1" fill="#000" opacity="0.07"/><rect x="0" y="82" width="860" height="1" fill="#000" opacity="0.07"/><rect x="0" y="84" width="860" height="1" fill="#000" opacity="0.07"/><rect x="0" y="86" width="860" height="1" fill="#000" opacity="0.07"/><rect x="0" y="88" width="860" height="1" fill="#000" opacity="0.07"/><rect x="0" y="90" width="860" height="1" fill="#000" opacity="0.07"/><rect x="0" y="92" width="860" height="1" fill="#000" opacity="0.07"/><rect x="0" y="94" width="860" height="1" fill="#000" opacity="0.07"/><rect x="0" y="96" width="860" height="1" fill="#000" opacity="0.07"/><rect x="0" y="98" width="860" height="1" fill="#000" opacity="0.07"/><rect x="0" y="100" width="860" height="1" fill="#000" opacity="0.07"/><rect x="0" y="102" width="860" height="1" fill="#000" opacity="0.07"/><rect x="0" y="104" width="860" height="1" fill="#000" opacity="0.07"/><rect x="0" y="106" width="860" height="1" fill="#000" opacity="0.07"/><rect x="0" y="108" width="860" height="1" fill="#000" opacity="0.07"/><rect x="0" y="110" width="860" height="1" fill="#000" opacity="0.07"/><rect x="0" y="112" width="860" height="1" fill="#000" opacity="0.07"/><rect x="0" y="114" width="860" height="1" fill="#000" opacity="0.07"/><rect x="0" y="116" width="860" height="1" fill="#000" opacity="0.07"/><rect x="0" y="118" width="860" height="1" fill="#000" opacity="0.07"/><rect x="0" y="120" width="860" height="1" fill="#000" opacity="0.07"/><rect x="0" y="122" width="860" height="1" fill="#000" opacity="0.07"/><rect x="0" y="124" width="860" height="1" fill="#000" opacity="0.07"/><rect x="0" y="126" width="860" height="1" fill="#000" opacity="0.07"/><rect x="0" y="128" width="860" height="1" fill="#000" opacity="0.07"/><rect x="0" y="130" width="860" height="1" fill="#000" opacity="0.07"/><rect x="0" y="132" width="860" height="1" fill="#000" opacity="0.07"/><rect x="0" y="134" width="860" height="1" fill="#000" opacity="0.07"/><rect x="0" y="136" width="860" height="1" fill="#000" opacity="0.07"/><rect x="0" y="138" width="860" height="1" fill="#000" opacity="0.07"/><rect x="0" y="140" width="860" height="1" fill="#000" opacity="0.07"/><rect x="0" y="142" width="860" height="1" fill="#000" opacity="0.07"/><rect x="0" y="144" width="860" height="1" fill="#000" opacity="0.07"/><rect x="0" y="146" width="860" height="1" fill="#000" opacity="0.07"/><rect x="0" y="148" width="860" height="1" fill="#000" opacity="0.07"/><rect x="0" y="150" width="860" height="1" fill="#000" opacity="0.07"/><rect x="0" y="152" width="860" height="1" fill="#000" opacity="0.07"/><rect x="0" y="154" width="860" height="1" fill="#000" opacity="0.07"/><rect x="0" y="156" width="860" height="1" fill="#000" opacity="0.07"/><rect x="0" y="158" width="860" height="1" fill="#000" opacity="0.07"/><rect x="0" y="160" width="860" height="1" fill="#000" opacity="0.07"/><rect x="0" y="162" width="860" height="1" fill="#000" opacity="0.07"/><rect x="0" y="164" width="860" height="1" fill="#000" opacity="0.07"/><rect x="0" y="166" width="860" height="1" fill="#000" opacity="0.07"/><rect x="0" y="168" width="860" height="1" fill="#000" opacity="0.07"/><rect x="0" y="170" width="860" height="1" fill="#000" opacity="0.07"/><rect x="0" y="172" width="860" height="1" fill="#000" opacity="0.07"/><rect x="0" y="174" width="860" height="1" fill="#000" opacity="0.07"/><rect x="0" y="176" width="860" height="1" fill="#000" opacity="0.07"/><rect x="0" y="178" width="860" height="1" fill="#000" opacity="0.07"/><rect x="0" y="180" width="860" height="1" fill="#000" opacity="0.07"/><rect x="0" y="182" width="860" height="1" fill="#000" opacity="0.07"/><rect x="0" y="184" width="860" height="1" fill="#000" opacity="0.07"/><rect x="0" y="186" width="860" height="1" fill="#000" opacity="0.07"/><rect x="0" y="188" width="860" height="1" fill="#000" opacity="0.07"/><rect x="0" y="190" width="860" height="1" fill="#000" opacity="0.07"/><rect x="0" y="192" width="860" height="1" fill="#000" opacity="0.07"/>
<rect x="10" y="10" width="4" height="4" fill="#00ff41" opacity="0.45"/>
<rect x="15" y="10" width="4" height="4" fill="#00ff41" opacity="0.45"/>
<rect x="20" y="10" width="4" height="4" fill="#00ff41" opacity="0.45"/>
<rect x="25" y="10" width="4" height="4" fill="#00ff41" opacity="0.45"/>
<rect x="30" y="10" width="4" height="4" fill="#00ff41" opacity="0.45"/>
<rect x="10" y="15" width="4" height="4" fill="#00ff41" opacity="0.45"/>
<rect x="10" y="20" width="4" height="4" fill="#00ff41" opacity="0.45"/>
<rect x="10" y="25" width="4" height="4" fill="#00ff41" opacity="0.45"/>
<rect x="845" y="10" width="4" height="4" fill="#00ff41" opacity="0.45"/>
<rect x="840" y="10" width="4" height="4" fill="#00ff41" opacity="0.45"/>
<rect x="835" y="10" width="4" height="4" fill="#00ff41" opacity="0.45"/>
<rect x="830" y="10" width="4" height="4" fill="#00ff41" opacity="0.45"/>
<rect x="825" y="10" width="4" height="4" fill="#00ff41" opacity="0.45"/>
<rect x="845" y="15" width="4" height="4" fill="#00ff41" opacity="0.45"/>
<rect x="845" y="20" width="4" height="4" fill="#00ff41" opacity="0.45"/>
<rect x="845" y="25" width="4" height="4" fill="#00ff41" opacity="0.45"/>
<rect x="10" y="178" width="4" height="4" fill="#00ff41" opacity="0.45"/>
<rect x="15" y="178" width="4" height="4" fill="#00ff41" opacity="0.45"/>
<rect x="20" y="178" width="4" height="4" fill="#00ff41" opacity="0.45"/>
<rect x="25" y="178" width="4" height="4" fill="#00ff41" opacity="0.45"/>
<rect x="30" y="178" width="4" height="4" fill="#00ff41" opacity="0.45"/>
<rect x="10" y="173" width="4" height="4" fill="#00ff41" opacity="0.45"/>
<rect x="10" y="168" width="4" height="4" fill="#00ff41" opacity="0.45"/>
<rect x="10" y="163" width="4" height="4" fill="#00ff41" opacity="0.45"/>
<rect x="845" y="178" width="4" height="4" fill="#00ff41" opacity="0.45"/>
<rect x="840" y="178" width="4" height="4" fill="#00ff41" opacity="0.45"/>
<rect x="835" y="178" width="4" height="4" fill="#00ff41" opacity="0.45"/>
<rect x="830" y="178" width="4" height="4" fill="#00ff41" opacity="0.45"/>
<rect x="825" y="178" width="4" height="4" fill="#00ff41" opacity="0.45"/>
<rect x="845" y="173" width="4" height="4" fill="#00ff41" opacity="0.45"/>
<rect x="845" y="168" width="4" height="4" fill="#00ff41" opacity="0.45"/>
<rect x="845" y="163" width="4" height="4" fill="#00ff41" opacity="0.45"/>
<rect x="32" y="63" width="4" height="2" fill="#00ff41" opacity="0.28"/>
<rect x="44" y="63" width="4" height="2" fill="#00ff41" opacity="0.28"/>
<rect x="56" y="63" width="4" height="2" fill="#00ff41" opacity="0.28"/>
<rect x="68" y="63" width="4" height="2" fill="#00ff41" opacity="0.28"/>
<rect x="80" y="63" width="4" height="2" fill="#00ff41" opacity="0.28"/>
<rect x="92" y="63" width="4" height="2" fill="#00ff41" opacity="0.28"/>
<rect x="104" y="63" width="4" height="2" fill="#00ff41" opacity="0.28"/>
<rect x="116" y="63" width="4" height="2" fill="#00ff41" opacity="0.28"/>
<rect x="128" y="63" width="4" height="2" fill="#00ff41" opacity="0.28"/>
<rect x="140" y="63" width="4" height="2" fill="#00ff41" opacity="0.28"/>
<rect x="152" y="63" width="4" height="2" fill="#00ff41" opacity="0.28"/>
<rect x="164" y="63" width="4" height="2" fill="#00ff41" opacity="0.28"/>
<rect x="176" y="63" width="4" height="2" fill="#00ff41" opacity="0.28"/>
<rect x="188" y="63" width="4" height="2" fill="#00ff41" opacity="0.28"/>
<rect x="200" y="63" width="4" height="2" fill="#00ff41" opacity="0.28"/>
<rect x="212" y="63" width="4" height="2" fill="#00ff41" opacity="0.28"/>
<rect x="224" y="63" width="4" height="2" fill="#00ff41" opacity="0.28"/>
<rect x="236" y="63" width="4" height="2" fill="#00ff41" opacity="0.28"/>
<rect x="248" y="63" width="4" height="2" fill="#00ff41" opacity="0.28"/>
<rect x="260" y="63" width="4" height="2" fill="#00ff41" opacity="0.28"/>
<rect x="272" y="63" width="4" height="2" fill="#00ff41" opacity="0.28"/>
<rect x="284" y="63" width="4" height="2" fill="#00ff41" opacity="0.28"/>
<rect x="296" y="63" width="4" height="2" fill="#00ff41" opacity="0.28"/>
<rect x="308" y="63" width="4" height="2" fill="#00ff41" opacity="0.28"/>
<rect x="320" y="63" width="4" height="2" fill="#00ff41" opacity="0.28"/>
<rect x="332" y="63" width="4" height="2" fill="#00ff41" opacity="0.28"/>
<rect x="344" y="63" width="4" height="2" fill="#00ff41" opacity="0.28"/>
<rect x="356" y="63" width="4" height="2" fill="#00ff41" opacity="0.28"/>
<rect x="368" y="63" width="4" height="2" fill="#00ff41" opacity="0.28"/>
<rect x="380" y="63" width="4" height="2" fill="#00ff41" opacity="0.28"/>
<rect x="392" y="63" width="4" height="2" fill="#00ff41" opacity="0.28"/>
<rect x="404" y="63" width="4" height="2" fill="#00ff41" opacity="0.28"/>
<rect x="416" y="63" width="4" height="2" fill="#00ff41" opacity="0.28"/>
<rect x="428" y="63" width="4" height="2" fill="#00ff41" opacity="0.28"/>
<rect x="440" y="63" width="4" height="2" fill="#00ff41" opacity="0.28"/>
<rect x="452" y="63" width="4" height="2" fill="#00ff41" opacity="0.28"/>
<rect x="464" y="63" width="4" height="2" fill="#00ff41" opacity="0.28"/>
<rect x="476" y="63" width="4" height="2" fill="#00ff41" opacity="0.28"/>
<rect x="488" y="63" width="4" height="2" fill="#00ff41" opacity="0.28"/>
<rect x="500" y="63" width="4" height="2" fill="#00ff41" opacity="0.28"/>
<rect x="512" y="63" width="4" height="2" fill="#00ff41" opacity="0.28"/>
<rect x="524" y="63" width="4" height="2" fill="#00ff41" opacity="0.28"/>
<rect x="536" y="63" width="4" height="2" fill="#00ff41" opacity="0.28"/>
<rect x="548" y="63" width="4" height="2" fill="#00ff41" opacity="0.28"/>
<rect x="560" y="63" width="4" height="2" fill="#00ff41" opacity="0.28"/>
<rect x="572" y="63" width="4" height="2" fill="#00ff41" opacity="0.28"/>
<rect x="584" y="63" width="4" height="2" fill="#00ff41" opacity="0.28"/>
<rect x="596" y="63" width="4" height="2" fill="#00ff41" opacity="0.28"/>
<rect x="608" y="63" width="4" height="2" fill="#00ff41" opacity="0.28"/>
<rect x="620" y="63" width="4" height="2" fill="#00ff41" opacity="0.28"/>
<rect x="632" y="63" width="4" height="2" fill="#00ff41" opacity="0.28"/>
<rect x="644" y="63" width="4" height="2" fill="#00ff41" opacity="0.28"/>
<rect x="656" y="63" width="4" height="2" fill="#00ff41" opacity="0.28"/>
<rect x="668" y="63" width="4" height="2" fill="#00ff41" opacity="0.28"/>
<rect x="680" y="63" width="4" height="2" fill="#00ff41" opacity="0.28"/>
<rect x="692" y="63" width="4" height="2" fill="#00ff41" opacity="0.28"/>
<rect x="704" y="63" width="4" height="2" fill="#00ff41" opacity="0.28"/>
<rect x="716" y="63" width="4" height="2" fill="#00ff41" opacity="0.28"/>
<rect x="728" y="63" width="4" height="2" fill="#00ff41" opacity="0.28"/>
<rect x="740" y="63" width="4" height="2" fill="#00ff41" opacity="0.28"/>
<rect x="752" y="63" width="4" height="2" fill="#00ff41" opacity="0.28"/>
<rect x="764" y="63" width="4" height="2" fill="#00ff41" opacity="0.28"/>
<rect x="776" y="63" width="4" height="2" fill="#00ff41" opacity="0.28"/>
<rect x="788" y="63" width="4" height="2" fill="#00ff41" opacity="0.28"/>
<rect x="800" y="63" width="4" height="2" fill="#00ff41" opacity="0.28"/>
<rect x="812" y="63" width="4" height="2" fill="#00ff41" opacity="0.28"/>
<rect x="824" y="63" width="4" height="2" fill="#00ff41" opacity="0.28"/>
<g class="st" fill="#00ff41">
<rect x="37" y="16" width="5" height="5"/>
<rect x="42" y="16" width="5" height="5"/>
<rect x="47" y="16" width="5" height="5"/>
<rect x="52" y="16" width="5" height="5"/>
<rect x="32" y="21" width="5" height="5"/>
<rect x="32" y="26" width="5" height="5"/>
<rect x="37" y="31" width="5" height="5"/>
<rect x="42" y="31" width="5" height="5"/>
<rect x="47" y="31" width="5" height="5"/>
<rect x="52" y="36" width="5" height="5"/>
<rect x="52" y="41" width="5" height="5"/>
<rect x="32" y="46" width="5" height="5"/>
<rect x="37" y="46" width="5" height="5"/>
<rect x="42" y="46" width="5" height="5"/>
<rect x="47" y="46" width="5" height="5"/>
<rect x="59" y="16" width="5" height="5"/>
<rect x="79" y="16" width="5" height="5"/>
<rect x="59" y="21" width="5" height="5"/>
<rect x="74" y="21" width="5" height="5"/>
<rect x="59" y="26" width="5" height="5"/>
<rect x="69" y="26" width="5" height="5"/>
<rect x="59" y="31" width="5" height="5"/>
<rect x="64" y="31" width="5" height="5"/>
<rect x="59" y="36" width="5" height="5"/>
<rect x="69" y="36" width="5" height="5"/>
<rect x="59" y="41" width="5" height="5"/>
<rect x="74" y="41" width="5" height="5"/>
<rect x="59" y="46" width="5" height="5"/>
<rect x="79" y="46" width="5" height="5"/>
<rect x="86" y="16" width="5" height="5"/>
<rect x="91" y="16" width="5" height="5"/>
<rect x="96" y="16" width="5" height="5"/>
<rect x="101" y="16" width="5" height="5"/>
<rect x="106" y="16" width="5" height="5"/>
<rect x="96" y="21" width="5" height="5"/>
<rect x="96" y="26" width="5" height="5"/>
<rect x="96" y="31" width="5" height="5"/>
<rect x="96" y="36" width="5" height="5"/>
<rect x="96" y="41" width="5" height="5"/>
<rect x="86" y="46" width="5" height="5"/>
<rect x="91" y="46" width="5" height="5"/>
<rect x="96" y="46" width="5" height="5"/>
<rect x="101" y="46" width="5" height="5"/>
<rect x="106" y="46" width="5" height="5"/>
<rect x="113" y="16" width="5" height="5"/>
<rect x="113" y="21" width="5" height="5"/>
<rect x="113" y="26" width="5" height="5"/>
<rect x="113" y="31" width="5" height="5"/>
<rect x="113" y="36" width="5" height="5"/>
<rect x="113" y="41" width="5" height="5"/>
<rect x="113" y="46" width="5" height="5"/>
<rect x="118" y="46" width="5" height="5"/>
<rect x="123" y="46" width="5" height="5"/>
<rect x="128" y="46" width="5" height="5"/>
<rect x="133" y="46" width="5" height="5"/>
<rect x="140" y="16" width="5" height="5"/>
<rect x="140" y="21" width="5" height="5"/>
<rect x="140" y="26" width="5" height="5"/>
<rect x="140" y="31" width="5" height="5"/>
<rect x="140" y="36" width="5" height="5"/>
<rect x="140" y="41" width="5" height="5"/>
<rect x="140" y="46" width="5" height="5"/>
<rect x="145" y="46" width="5" height="5"/>
<rect x="150" y="46" width="5" height="5"/>
<rect x="155" y="46" width="5" height="5"/>
<rect x="160" y="46" width="5" height="5"/>
</g>
<g fill="#00ff41">
<rect x="32" y="77" width="4" height="4"/>
<rect x="32" y="81" width="4" height="4"/>
<rect x="32" y="85" width="4" height="4"/>
<rect x="32" y="89" width="4" height="4"/>
<rect x="32" y="93" width="4" height="4"/>
<rect x="32" y="97" width="4" height="4"/>
<rect x="32" y="101" width="4" height="4"/>
<rect x="36" y="101" width="4" height="4"/>
<rect x="40" y="101" width="4" height="4"/>
<rect x="44" y="101" width="4" height="4"/>
<rect x="48" y="101" width="4" height="4"/>
<rect x="58" y="77" width="4" height="4"/>
<rect x="62" y="77" width="4" height="4"/>
<rect x="66" y="77" width="4" height="4"/>
<rect x="54" y="81" width="4" height="4"/>
<rect x="70" y="81" width="4" height="4"/>
<rect x="54" y="85" width="4" height="4"/>
<rect x="70" y="85" width="4" height="4"/>
<rect x="54" y="89" width="4" height="4"/>
<rect x="58" y="89" width="4" height="4"/>
<rect x="62" y="89" width="4" height="4"/>
<rect x="66" y="89" width="4" height="4"/>
<rect x="70" y="89" width="4" height="4"/>
<rect x="54" y="93" width="4" height="4"/>
<rect x="70" y="93" width="4" height="4"/>
<rect x="54" y="97" width="4" height="4"/>
<rect x="70" y="97" width="4" height="4"/>
<rect x="54" y="101" width="4" height="4"/>
<rect x="70" y="101" width="4" height="4"/>
<rect x="76" y="77" width="4" height="4"/>
<rect x="92" y="77" width="4" height="4"/>
<rect x="76" y="81" width="4" height="4"/>
<rect x="80" y="81" width="4" height="4"/>
<rect x="92" y="81" width="4" height="4"/>
<rect x="76" y="85" width="4" height="4"/>
<rect x="84" y="85" width="4" height="4"/>
<rect x="92" y="85" width="4" height="4"/>
<rect x="76" y="89" width="4" height="4"/>
<rect x="88" y="89" width="4" height="4"/>
<rect x="92" y="89" width="4" height="4"/>
<rect x="76" y="93" width="4" height="4"/>
<rect x="92" y="93" width="4" height="4"/>
<rect x="76" y="97" width="4" height="4"/>
<rect x="92" y="97" width="4" height="4"/>
<rect x="76" y="101" width="4" height="4"/>
<rect x="92" y="101" width="4" height="4"/>
<rect x="102" y="77" width="4" height="4"/>
<rect x="106" y="77" width="4" height="4"/>
<rect x="110" y="77" width="4" height="4"/>
<rect x="114" y="77" width="4" height="4"/>
<rect x="98" y="81" width="4" height="4"/>
<rect x="98" y="85" width="4" height="4"/>
<rect x="98" y="89" width="4" height="4"/>
<rect x="106" y="89" width="4" height="4"/>
<rect x="110" y="89" width="4" height="4"/>
<rect x="114" y="89" width="4" height="4"/>
<rect x="98" y="93" width="4" height="4"/>
<rect x="114" y="93" width="4" height="4"/>
<rect x="98" y="97" width="4" height="4"/>
<rect x="114" y="97" width="4" height="4"/>
<rect x="102" y="101" width="4" height="4"/>
<rect x="106" y="101" width="4" height="4"/>
<rect x="110" y="101" width="4" height="4"/>
<rect x="114" y="101" width="4" height="4"/>
<rect x="120" y="77" width="4" height="4"/>
<rect x="136" y="77" width="4" height="4"/>
<rect x="120" y="81" width="4" height="4"/>
<rect x="136" y="81" width="4" height="4"/>
<rect x="120" y="85" width="4" height="4"/>
<rect x="136" y="85" width="4" height="4"/>
<rect x="120" y="89" width="4" height="4"/>
<rect x="136" y="89" width="4" height="4"/>
<rect x="120" y="93" width="4" height="4"/>
<rect x="136" y="93" width="4" height="4"/>
<rect x="120" y="97" width="4" height="4"/>
<rect x="136" y="97" width="4" height="4"/>
<rect x="124" y="101" width="4" height="4"/>
<rect x="128" y="101" width="4" height="4"/>
<rect x="132" y="101" width="4" height="4"/>
<rect x="146" y="77" width="4" height="4"/>
<rect x="150" y="77" width="4" height="4"/>
<rect x="154" y="77" width="4" height="4"/>
<rect x="142" y="81" width="4" height="4"/>
<rect x="158" y="81" width="4" height="4"/>
<rect x="142" y="85" width="4" height="4"/>
<rect x="158" y="85" width="4" height="4"/>
<rect x="142" y="89" width="4" height="4"/>
<rect x="146" y="89" width="4" height="4"/>
<rect x="150" y="89" width="4" height="4"/>
<rect x="154" y="89" width="4" height="4"/>
<rect x="158" y="89" width="4" height="4"/>
<rect x="142" y="93" width="4" height="4"/>
<rect x="158" y="93" width="4" height="4"/>
<rect x="142" y="97" width="4" height="4"/>
<rect x="158" y="97" width="4" height="4"/>
<rect x="142" y="101" width="4" height="4"/>
<rect x="158" y="101" width="4" height="4"/>
<rect x="168" y="77" width="4" height="4"/>
<rect x="172" y="77" width="4" height="4"/>
<rect x="176" y="77" width="4" height="4"/>
<rect x="180" y="77" width="4" height="4"/>
<rect x="164" y="81" width="4" height="4"/>
<rect x="164" y="85" width="4" height="4"/>
<rect x="164" y="89" width="4" height="4"/>
<rect x="172" y="89" width="4" height="4"/>
<rect x="176" y="89" width="4" height="4"/>
<rect x="180" y="89" width="4" height="4"/>
<rect x="164" y="93" width="4" height="4"/>
<rect x="180" y="93" width="4" height="4"/>
<rect x="164" y="97" width="4" height="4"/>
<rect x="180" y="97" width="4" height="4"/>
<rect x="168" y="101" width="4" height="4"/>
<rect x="172" y="101" width="4" height="4"/>
<rect x="176" y="101" width="4" height="4"/>
<rect x="180" y="101" width="4" height="4"/>
<rect x="186" y="77" width="4" height="4"/>
<rect x="190" y="77" width="4" height="4"/>
<rect x="194" y="77" width="4" height="4"/>
<rect x="198" y="77" width="4" height="4"/>
<rect x="202" y="77" width="4" height="4"/>
<rect x="186" y="81" width="4" height="4"/>
<rect x="186" y="85" width="4" height="4"/>
<rect x="186" y="89" width="4" height="4"/>
<rect x="190" y="89" width="4" height="4"/>
<rect x="194" y="89" width="4" height="4"/>
<rect x="198" y="89" width="4" height="4"/>
<rect x="186" y="93" width="4" height="4"/>
<rect x="186" y="97" width="4" height="4"/>
<rect x="186" y="101" width="4" height="4"/>
<rect x="190" y="101" width="4" height="4"/>
<rect x="194" y="101" width="4" height="4"/>
<rect x="198" y="101" width="4" height="4"/>
<rect x="202" y="101" width="4" height="4"/>
<rect x="212" y="77" width="4" height="4"/>
<rect x="216" y="77" width="4" height="4"/>
<rect x="220" y="77" width="4" height="4"/>
<rect x="224" y="77" width="4" height="4"/>
<rect x="208" y="81" width="4" height="4"/>
<rect x="208" y="85" width="4" height="4"/>
<rect x="212" y="89" width="4" height="4"/>
<rect x="216" y="89" width="4" height="4"/>
<rect x="220" y="89" width="4" height="4"/>
<rect x="224" y="93" width="4" height="4"/>
<rect x="224" y="97" width="4" height="4"/>
<rect x="208" y="101" width="4" height="4"/>
<rect x="212" y="101" width="4" height="4"/>
<rect x="216" y="101" width="4" height="4"/>
<rect x="220" y="101" width="4" height="4"/>
</g>
<g fill="#00ff41" opacity="0.7">
<rect x="35" y="113" width="3" height="3"/>
<rect x="38" y="113" width="3" height="3"/>
<rect x="41" y="113" width="3" height="3"/>
<rect x="35" y="116" width="3" height="3"/>
<rect x="35" y="119" width="3" height="3"/>
<rect x="35" y="122" width="3" height="3"/>
<rect x="35" y="125" width="3" height="3"/>
<rect x="35" y="128" width="3" height="3"/>
<rect x="35" y="131" width="3" height="3"/>
<rect x="38" y="131" width="3" height="3"/>
<rect x="41" y="131" width="3" height="3"/>
<rect x="48" y="113" width="3" height="3"/>
<rect x="51" y="113" width="3" height="3"/>
<rect x="54" y="113" width="3" height="3"/>
<rect x="57" y="113" width="3" height="3"/>
<rect x="48" y="116" width="3" height="3"/>
<rect x="60" y="116" width="3" height="3"/>
<rect x="48" y="119" width="3" height="3"/>
<rect x="60" y="119" width="3" height="3"/>
<rect x="48" y="122" width="3" height="3"/>
<rect x="51" y="122" width="3" height="3"/>
<rect x="54" y="122" width="3" height="3"/>
<rect x="57" y="122" width="3" height="3"/>
<rect x="48" y="125" width="3" height="3"/>
<rect x="48" y="128" width="3" height="3"/>
<rect x="48" y="131" width="3" height="3"/>
<rect x="64" y="113" width="3" height="3"/>
<rect x="76" y="113" width="3" height="3"/>
<rect x="64" y="116" width="3" height="3"/>
<rect x="76" y="116" width="3" height="3"/>
<rect x="67" y="119" width="3" height="3"/>
<rect x="73" y="119" width="3" height="3"/>
<rect x="70" y="122" width="3" height="3"/>
<rect x="70" y="125" width="3" height="3"/>
<rect x="70" y="128" width="3" height="3"/>
<rect x="70" y="131" width="3" height="3"/>
<rect x="83" y="113" width="3" height="3"/>
<rect x="86" y="113" width="3" height="3"/>
<rect x="89" y="113" width="3" height="3"/>
<rect x="89" y="116" width="3" height="3"/>
<rect x="89" y="119" width="3" height="3"/>
<rect x="89" y="122" width="3" height="3"/>
<rect x="89" y="125" width="3" height="3"/>
<rect x="89" y="128" width="3" height="3"/>
<rect x="83" y="131" width="3" height="3"/>
<rect x="86" y="131" width="3" height="3"/>
<rect x="89" y="131" width="3" height="3"/>
<rect x="115" y="113" width="3" height="3"/>
<rect x="118" y="113" width="3" height="3"/>
<rect x="121" y="113" width="3" height="3"/>
<rect x="115" y="116" width="3" height="3"/>
<rect x="115" y="119" width="3" height="3"/>
<rect x="115" y="122" width="3" height="3"/>
<rect x="115" y="125" width="3" height="3"/>
<rect x="115" y="128" width="3" height="3"/>
<rect x="115" y="131" width="3" height="3"/>
<rect x="118" y="131" width="3" height="3"/>
<rect x="121" y="131" width="3" height="3"/>
<rect x="131" y="113" width="3" height="3"/>
<rect x="134" y="113" width="3" height="3"/>
<rect x="137" y="113" width="3" height="3"/>
<rect x="140" y="113" width="3" height="3"/>
<rect x="140" y="116" width="3" height="3"/>
<rect x="140" y="119" width="3" height="3"/>
<rect x="140" y="122" width="3" height="3"/>
<rect x="128" y="125" width="3" height="3"/>
<rect x="140" y="125" width="3" height="3"/>
<rect x="128" y="128" width="3" height="3"/>
<rect x="140" y="128" width="3" height="3"/>
<rect x="131" y="131" width="3" height="3"/>
<rect x="134" y="131" width="3" height="3"/>
<rect x="137" y="131" width="3" height="3"/>
<rect x="147" y="113" width="3" height="3"/>
<rect x="150" y="113" width="3" height="3"/>
<rect x="153" y="113" width="3" height="3"/>
<rect x="144" y="116" width="3" height="3"/>
<rect x="156" y="116" width="3" height="3"/>
<rect x="144" y="119" width="3" height="3"/>
<rect x="156" y="119" width="3" height="3"/>
<rect x="144" y="122" width="3" height="3"/>
<rect x="147" y="122" width="3" height="3"/>
<rect x="150" y="122" width="3" height="3"/>
<rect x="153" y="122" width="3" height="3"/>
<rect x="156" y="122" width="3" height="3"/>
<rect x="144" y="125" width="3" height="3"/>
<rect x="156" y="125" width="3" height="3"/>
<rect x="144" y="128" width="3" height="3"/>
<rect x="156" y="128" width="3" height="3"/>
<rect x="144" y="131" width="3" height="3"/>
<rect x="156" y="131" width="3" height="3"/>
<rect x="160" y="113" width="3" height="3"/>
<rect x="172" y="113" width="3" height="3"/>
<rect x="160" y="116" width="3" height="3"/>
<rect x="172" y="116" width="3" height="3"/>
<rect x="160" y="119" width="3" height="3"/>
<rect x="172" y="119" width="3" height="3"/>
<rect x="160" y="122" width="3" height="3"/>
<rect x="172" y="122" width="3" height="3"/>
<rect x="163" y="125" width="3" height="3"/>
<rect x="169" y="125" width="3" height="3"/>
<rect x="163" y="128" width="3" height="3"/>
<rect x="169" y="128" width="3" height="3"/>
<rect x="166" y="131" width="3" height="3"/>
<rect x="179" y="113" width="3" height="3"/>
<rect x="182" y="113" width="3" height="3"/>
<rect x="185" y="113" width="3" height="3"/>
<rect x="176" y="116" width="3" height="3"/>
<rect x="188" y="116" width="3" height="3"/>
<rect x="176" y="119" width="3" height="3"/>
<rect x="188" y="119" width="3" height="3"/>
<rect x="176" y="122" width="3" height="3"/>
<rect x="179" y="122" width="3" height="3"/>
<rect x="182" y="122" width="3" height="3"/>
<rect x="185" y="122" width="3" height="3"/>
<rect x="188" y="122" width="3" height="3"/>
<rect x="176" y="125" width="3" height="3"/>
<rect x="188" y="125" width="3" height="3"/>
<rect x="176" y="128" width="3" height="3"/>
<rect x="188" y="128" width="3" height="3"/>
<rect x="176" y="131" width="3" height="3"/>
<rect x="188" y="131" width="3" height="3"/>
<rect x="195" y="113" width="3" height="3"/>
<rect x="198" y="113" width="3" height="3"/>
<rect x="201" y="113" width="3" height="3"/>
<rect x="201" y="116" width="3" height="3"/>
<rect x="201" y="119" width="3" height="3"/>
<rect x="201" y="122" width="3" height="3"/>
<rect x="201" y="125" width="3" height="3"/>
<rect x="201" y="128" width="3" height="3"/>
<rect x="195" y="131" width="3" height="3"/>
<rect x="198" y="131" width="3" height="3"/>
<rect x="201" y="131" width="3" height="3"/>
<rect x="227" y="113" width="3" height="3"/>
<rect x="230" y="113" width="3" height="3"/>
<rect x="233" y="113" width="3" height="3"/>
<rect x="227" y="116" width="3" height="3"/>
<rect x="227" y="119" width="3" height="3"/>
<rect x="227" y="122" width="3" height="3"/>
<rect x="227" y="125" width="3" height="3"/>
<rect x="227" y="128" width="3" height="3"/>
<rect x="227" y="131" width="3" height="3"/>
<rect x="230" y="131" width="3" height="3"/>
<rect x="233" y="131" width="3" height="3"/>
<rect x="243" y="113" width="3" height="3"/>
<rect x="246" y="113" width="3" height="3"/>
<rect x="249" y="113" width="3" height="3"/>
<rect x="252" y="113" width="3" height="3"/>
<rect x="240" y="116" width="3" height="3"/>
<rect x="240" y="119" width="3" height="3"/>
<rect x="240" y="122" width="3" height="3"/>
<rect x="240" y="125" width="3" height="3"/>
<rect x="240" y="128" width="3" height="3"/>
<rect x="243" y="131" width="3" height="3"/>
<rect x="246" y="131" width="3" height="3"/>
<rect x="249" y="131" width="3" height="3"/>
<rect x="252" y="131" width="3" height="3"/>
<rect x="259" y="113" width="3" height="3"/>
<rect x="262" y="113" width="3" height="3"/>
<rect x="265" y="113" width="3" height="3"/>
<rect x="265" y="116" width="3" height="3"/>
<rect x="265" y="119" width="3" height="3"/>
<rect x="265" y="122" width="3" height="3"/>
<rect x="265" y="125" width="3" height="3"/>
<rect x="265" y="128" width="3" height="3"/>
<rect x="259" y="131" width="3" height="3"/>
<rect x="262" y="131" width="3" height="3"/>
<rect x="265" y="131" width="3" height="3"/>
<rect x="291" y="113" width="3" height="3"/>
<rect x="294" y="113" width="3" height="3"/>
<rect x="297" y="113" width="3" height="3"/>
<rect x="291" y="116" width="3" height="3"/>
<rect x="291" y="119" width="3" height="3"/>
<rect x="291" y="122" width="3" height="3"/>
<rect x="291" y="125" width="3" height="3"/>
<rect x="291" y="128" width="3" height="3"/>
<rect x="291" y="131" width="3" height="3"/>
<rect x="294" y="131" width="3" height="3"/>
<rect x="297" y="131" width="3" height="3"/>
<rect x="307" y="113" width="3" height="3"/>
<rect x="310" y="113" width="3" height="3"/>
<rect x="313" y="113" width="3" height="3"/>
<rect x="316" y="113" width="3" height="3"/>
<rect x="304" y="116" width="3" height="3"/>
<rect x="304" y="119" width="3" height="3"/>
<rect x="304" y="122" width="3" height="3"/>
<rect x="304" y="125" width="3" height="3"/>
<rect x="304" y="128" width="3" height="3"/>
<rect x="307" y="131" width="3" height="3"/>
<rect x="310" y="131" width="3" height="3"/>
<rect x="313" y="131" width="3" height="3"/>
<rect x="316" y="131" width="3" height="3"/>
<rect x="326" y="113" width="3" height="3"/>
<rect x="326" y="116" width="3" height="3"/>
<rect x="320" y="119" width="3" height="3"/>
<rect x="323" y="119" width="3" height="3"/>
<rect x="326" y="119" width="3" height="3"/>
<rect x="329" y="119" width="3" height="3"/>
<rect x="332" y="119" width="3" height="3"/>
<rect x="326" y="122" width="3" height="3"/>
<rect x="326" y="125" width="3" height="3"/>
<rect x="342" y="113" width="3" height="3"/>
<rect x="342" y="116" width="3" height="3"/>
<rect x="336" y="119" width="3" height="3"/>
<rect x="339" y="119" width="3" height="3"/>
<rect x="342" y="119" width="3" height="3"/>
<rect x="345" y="119" width="3" height="3"/>
<rect x="348" y="119" width="3" height="3"/>
<rect x="342" y="122" width="3" height="3"/>
<rect x="342" y="125" width="3" height="3"/>
<rect x="355" y="113" width="3" height="3"/>
<rect x="358" y="113" width="3" height="3"/>
<rect x="361" y="113" width="3" height="3"/>
<rect x="361" y="116" width="3" height="3"/>
<rect x="361" y="119" width="3" height="3"/>
<rect x="361" y="122" width="3" height="3"/>
<rect x="361" y="125" width="3" height="3"/>
<rect x="361" y="128" width="3" height="3"/>
<rect x="355" y="131" width="3" height="3"/>
<rect x="358" y="131" width="3" height="3"/>
<rect x="361" y="131" width="3" height="3"/>
<rect x="387" y="113" width="3" height="3"/>
<rect x="390" y="113" width="3" height="3"/>
<rect x="393" y="113" width="3" height="3"/>
<rect x="387" y="116" width="3" height="3"/>
<rect x="387" y="119" width="3" height="3"/>
<rect x="387" y="122" width="3" height="3"/>
<rect x="387" y="125" width="3" height="3"/>
<rect x="387" y="128" width="3" height="3"/>
<rect x="387" y="131" width="3" height="3"/>
<rect x="390" y="131" width="3" height="3"/>
<rect x="393" y="131" width="3" height="3"/>
<rect x="403" y="113" width="3" height="3"/>
<rect x="406" y="113" width="3" height="3"/>
<rect x="409" y="113" width="3" height="3"/>
<rect x="412" y="113" width="3" height="3"/>
<rect x="400" y="116" width="3" height="3"/>
<rect x="400" y="119" width="3" height="3"/>
<rect x="400" y="122" width="3" height="3"/>
<rect x="400" y="125" width="3" height="3"/>
<rect x="400" y="128" width="3" height="3"/>
<rect x="403" y="131" width="3" height="3"/>
<rect x="406" y="131" width="3" height="3"/>
<rect x="409" y="131" width="3" height="3"/>
<rect x="412" y="131" width="3" height="3"/>
<rect x="419" y="113" width="3" height="3"/>
<rect x="425" y="113" width="3" height="3"/>
<rect x="419" y="116" width="3" height="3"/>
<rect x="425" y="116" width="3" height="3"/>
<rect x="416" y="119" width="3" height="3"/>
<rect x="419" y="119" width="3" height="3"/>
<rect x="422" y="119" width="3" height="3"/>
<rect x="425" y="119" width="3" height="3"/>
<rect x="428" y="119" width="3" height="3"/>
<rect x="419" y="122" width="3" height="3"/>
<rect x="425" y="122" width="3" height="3"/>
<rect x="416" y="125" width="3" height="3"/>
<rect x="419" y="125" width="3" height="3"/>
<rect x="422" y="125" width="3" height="3"/>
<rect x="425" y="125" width="3" height="3"/>
<rect x="428" y="125" width="3" height="3"/>
<rect x="419" y="128" width="3" height="3"/>
<rect x="425" y="128" width="3" height="3"/>
<rect x="419" y="131" width="3" height="3"/>
<rect x="425" y="131" width="3" height="3"/>
<rect x="435" y="113" width="3" height="3"/>
<rect x="438" y="113" width="3" height="3"/>
<rect x="441" y="113" width="3" height="3"/>
<rect x="441" y="116" width="3" height="3"/>
<rect x="441" y="119" width="3" height="3"/>
<rect x="441" y="122" width="3" height="3"/>
<rect x="441" y="125" width="3" height="3"/>
<rect x="441" y="128" width="3" height="3"/>
<rect x="435" y="131" width="3" height="3"/>
<rect x="438" y="131" width="3" height="3"/>
<rect x="441" y="131" width="3" height="3"/>
<rect x="467" y="113" width="3" height="3"/>
<rect x="470" y="113" width="3" height="3"/>
<rect x="473" y="113" width="3" height="3"/>
<rect x="467" y="116" width="3" height="3"/>
<rect x="467" y="119" width="3" height="3"/>
<rect x="467" y="122" width="3" height="3"/>
<rect x="467" y="125" width="3" height="3"/>
<rect x="467" y="128" width="3" height="3"/>
<rect x="467" y="131" width="3" height="3"/>
<rect x="470" y="131" width="3" height="3"/>
<rect x="473" y="131" width="3" height="3"/>
<rect x="483" y="113" width="3" height="3"/>
<rect x="486" y="113" width="3" height="3"/>
<rect x="489" y="113" width="3" height="3"/>
<rect x="492" y="113" width="3" height="3"/>
<rect x="480" y="116" width="3" height="3"/>
<rect x="480" y="119" width="3" height="3"/>
<rect x="483" y="122" width="3" height="3"/>
<rect x="486" y="122" width="3" height="3"/>
<rect x="489" y="122" width="3" height="3"/>
<rect x="492" y="125" width="3" height="3"/>
<rect x="492" y="128" width="3" height="3"/>
<rect x="480" y="131" width="3" height="3"/>
<rect x="483" y="131" width="3" height="3"/>
<rect x="486" y="131" width="3" height="3"/>
<rect x="489" y="131" width="3" height="3"/>
<rect x="499" y="113" width="3" height="3"/>
<rect x="502" y="113" width="3" height="3"/>
<rect x="505" y="113" width="3" height="3"/>
<rect x="496" y="116" width="3" height="3"/>
<rect x="508" y="116" width="3" height="3"/>
<rect x="496" y="119" width="3" height="3"/>
<rect x="508" y="119" width="3" height="3"/>
<rect x="496" y="122" width="3" height="3"/>
<rect x="508" y="122" width="3" height="3"/>
<rect x="496" y="125" width="3" height="3"/>
<rect x="502" y="125" width="3" height="3"/>
<rect x="508" y="125" width="3" height="3"/>
<rect x="496" y="128" width="3" height="3"/>
<rect x="505" y="128" width="3" height="3"/>
<rect x="508" y="128" width="3" height="3"/>
<rect x="499" y="131" width="3" height="3"/>
<rect x="502" y="131" width="3" height="3"/>
<rect x="505" y="131" width="3" height="3"/>
<rect x="508" y="131" width="3" height="3"/>
<rect x="512" y="113" width="3" height="3"/>
<rect x="512" y="116" width="3" height="3"/>
<rect x="512" y="119" width="3" height="3"/>
<rect x="512" y="122" width="3" height="3"/>
<rect x="512" y="125" width="3" height="3"/>
<rect x="512" y="128" width="3" height="3"/>
<rect x="512" y="131" width="3" height="3"/>
<rect x="515" y="131" width="3" height="3"/>
<rect x="518" y="131" width="3" height="3"/>
<rect x="521" y="131" width="3" height="3"/>
<rect x="524" y="131" width="3" height="3"/>
<rect x="531" y="113" width="3" height="3"/>
<rect x="534" y="113" width="3" height="3"/>
<rect x="537" y="113" width="3" height="3"/>
<rect x="537" y="116" width="3" height="3"/>
<rect x="537" y="119" width="3" height="3"/>
<rect x="537" y="122" width="3" height="3"/>
<rect x="537" y="125" width="3" height="3"/>
<rect x="537" y="128" width="3" height="3"/>
<rect x="531" y="131" width="3" height="3"/>
<rect x="534" y="131" width="3" height="3"/>
<rect x="537" y="131" width="3" height="3"/>
<rect x="35" y="142" width="3" height="3"/>
<rect x="38" y="142" width="3" height="3"/>
<rect x="41" y="142" width="3" height="3"/>
<rect x="35" y="145" width="3" height="3"/>
<rect x="35" y="148" width="3" height="3"/>
<rect x="35" y="151" width="3" height="3"/>
<rect x="35" y="154" width="3" height="3"/>
<rect x="35" y="157" width="3" height="3"/>
<rect x="35" y="160" width="3" height="3"/>
<rect x="38" y="160" width="3" height="3"/>
<rect x="41" y="160" width="3" height="3"/>
<rect x="51" y="142" width="3" height="3"/>
<rect x="54" y="142" width="3" height="3"/>
<rect x="57" y="142" width="3" height="3"/>
<rect x="60" y="142" width="3" height="3"/>
<rect x="60" y="145" width="3" height="3"/>
<rect x="60" y="148" width="3" height="3"/>
<rect x="60" y="151" width="3" height="3"/>
<rect x="48" y="154" width="3" height="3"/>
<rect x="60" y="154" width="3" height="3"/>
<rect x="48" y="157" width="3" height="3"/>
<rect x="60" y="157" width="3" height="3"/>
<rect x="51" y="160" width="3" height="3"/>
<rect x="54" y="160" width="3" height="3"/>
<rect x="57" y="160" width="3" height="3"/>
<rect x="67" y="142" width="3" height="3"/>
<rect x="70" y="142" width="3" height="3"/>
<rect x="73" y="142" width="3" height="3"/>
<rect x="76" y="142" width="3" height="3"/>
<rect x="64" y="145" width="3" height="3"/>
<rect x="64" y="148" width="3" height="3"/>
<rect x="67" y="151" width="3" height="3"/>
<rect x="70" y="151" width="3" height="3"/>
<rect x="73" y="151" width="3" height="3"/>
<rect x="76" y="154" width="3" height="3"/>
<rect x="76" y="157" width="3" height="3"/>
<rect x="64" y="160" width="3" height="3"/>
<rect x="67" y="160" width="3" height="3"/>
<rect x="70" y="160" width="3" height="3"/>
<rect x="73" y="160" width="3" height="3"/>
<rect x="83" y="142" width="3" height="3"/>
<rect x="86" y="142" width="3" height="3"/>
<rect x="89" y="142" width="3" height="3"/>
<rect x="89" y="145" width="3" height="3"/>
<rect x="89" y="148" width="3" height="3"/>
<rect x="89" y="151" width="3" height="3"/>
<rect x="89" y="154" width="3" height="3"/>
<rect x="89" y="157" width="3" height="3"/>
<rect x="83" y="160" width="3" height="3"/>
<rect x="86" y="160" width="3" height="3"/>
<rect x="89" y="160" width="3" height="3"/>
<rect x="115" y="142" width="3" height="3"/>
<rect x="118" y="142" width="3" height="3"/>
<rect x="121" y="142" width="3" height="3"/>
<rect x="115" y="145" width="3" height="3"/>
<rect x="115" y="148" width="3" height="3"/>
<rect x="115" y="151" width="3" height="3"/>
<rect x="115" y="154" width="3" height="3"/>
<rect x="115" y="157" width="3" height="3"/>
<rect x="115" y="160" width="3" height="3"/>
<rect x="118" y="160" width="3" height="3"/>
<rect x="121" y="160" width="3" height="3"/>
<rect x="128" y="142" width="3" height="3"/>
<rect x="140" y="142" width="3" height="3"/>
<rect x="128" y="145" width="3" height="3"/>
<rect x="140" y="145" width="3" height="3"/>
<rect x="128" y="148" width="3" height="3"/>
<rect x="140" y="148" width="3" height="3"/>
<rect x="128" y="151" width="3" height="3"/>
<rect x="131" y="151" width="3" height="3"/>
<rect x="134" y="151" width="3" height="3"/>
<rect x="137" y="151" width="3" height="3"/>
<rect x="140" y="151" width="3" height="3"/>
<rect x="128" y="154" width="3" height="3"/>
<rect x="140" y="154" width="3" height="3"/>
<rect x="128" y="157" width="3" height="3"/>
<rect x="140" y="157" width="3" height="3"/>
<rect x="128" y="160" width="3" height="3"/>
<rect x="140" y="160" width="3" height="3"/>
<rect x="144" y="142" width="3" height="3"/>
<rect x="147" y="142" width="3" height="3"/>
<rect x="150" y="142" width="3" height="3"/>
<rect x="153" y="142" width="3" height="3"/>
<rect x="156" y="142" width="3" height="3"/>
<rect x="150" y="145" width="3" height="3"/>
<rect x="150" y="148" width="3" height="3"/>
<rect x="150" y="151" width="3" height="3"/>
<rect x="150" y="154" width="3" height="3"/>
<rect x="150" y="157" width="3" height="3"/>
<rect x="150" y="160" width="3" height="3"/>
<rect x="160" y="142" width="3" height="3"/>
<rect x="172" y="142" width="3" height="3"/>
<rect x="160" y="145" width="3" height="3"/>
<rect x="163" y="145" width="3" height="3"/>
<rect x="169" y="145" width="3" height="3"/>
<rect x="172" y="145" width="3" height="3"/>
<rect x="160" y="148" width="3" height="3"/>
<rect x="166" y="148" width="3" height="3"/>
<rect x="172" y="148" width="3" height="3"/>
<rect x="160" y="151" width="3" height="3"/>
<rect x="172" y="151" width="3" height="3"/>
<rect x="160" y="154" width="3" height="3"/>
<rect x="172" y="154" width="3" height="3"/>
<rect x="160" y="157" width="3" height="3"/>
<rect x="172" y="157" width="3" height="3"/>
<rect x="160" y="160" width="3" height="3"/>
<rect x="172" y="160" width="3" height="3"/>
<rect x="176" y="142" width="3" height="3"/>
<rect x="176" y="145" width="3" height="3"/>
<rect x="176" y="148" width="3" height="3"/>
<rect x="176" y="151" width="3" height="3"/>
<rect x="176" y="154" width="3" height="3"/>
<rect x="176" y="157" width="3" height="3"/>
<rect x="176" y="160" width="3" height="3"/>
<rect x="179" y="160" width="3" height="3"/>
<rect x="182" y="160" width="3" height="3"/>
<rect x="185" y="160" width="3" height="3"/>
<rect x="188" y="160" width="3" height="3"/>
<rect x="195" y="142" width="3" height="3"/>
<rect x="198" y="142" width="3" height="3"/>
<rect x="201" y="142" width="3" height="3"/>
<rect x="201" y="145" width="3" height="3"/>
<rect x="201" y="148" width="3" height="3"/>
<rect x="201" y="151" width="3" height="3"/>
<rect x="201" y="154" width="3" height="3"/>
<rect x="201" y="157" width="3" height="3"/>
<rect x="195" y="160" width="3" height="3"/>
<rect x="198" y="160" width="3" height="3"/>
<rect x="201" y="160" width="3" height="3"/>
<rect x="227" y="142" width="3" height="3"/>
<rect x="230" y="142" width="3" height="3"/>
<rect x="233" y="142" width="3" height="3"/>
<rect x="227" y="145" width="3" height="3"/>
<rect x="227" y="148" width="3" height="3"/>
<rect x="227" y="151" width="3" height="3"/>
<rect x="227" y="154" width="3" height="3"/>
<rect x="227" y="157" width="3" height="3"/>
<rect x="227" y="160" width="3" height="3"/>
<rect x="230" y="160" width="3" height="3"/>
<rect x="233" y="160" width="3" height="3"/>
<rect x="243" y="142" width="3" height="3"/>
<rect x="246" y="142" width="3" height="3"/>
<rect x="249" y="142" width="3" height="3"/>
<rect x="252" y="142" width="3" height="3"/>
<rect x="240" y="145" width="3" height="3"/>
<rect x="240" y="148" width="3" height="3"/>
<rect x="240" y="151" width="3" height="3"/>
<rect x="240" y="154" width="3" height="3"/>
<rect x="240" y="157" width="3" height="3"/>
<rect x="243" y="160" width="3" height="3"/>
<rect x="246" y="160" width="3" height="3"/>
<rect x="249" y="160" width="3" height="3"/>
<rect x="252" y="160" width="3" height="3"/>
<rect x="259" y="142" width="3" height="3"/>
<rect x="262" y="142" width="3" height="3"/>
<rect x="265" y="142" width="3" height="3"/>
<rect x="268" y="142" width="3" height="3"/>
<rect x="256" y="145" width="3" height="3"/>
<rect x="256" y="148" width="3" height="3"/>
<rect x="259" y="151" width="3" height="3"/>
<rect x="262" y="151" width="3" height="3"/>
<rect x="265" y="151" width="3" height="3"/>
<rect x="268" y="154" width="3" height="3"/>
<rect x="268" y="157" width="3" height="3"/>
<rect x="256" y="160" width="3" height="3"/>
<rect x="259" y="160" width="3" height="3"/>
<rect x="262" y="160" width="3" height="3"/>
<rect x="265" y="160" width="3" height="3"/>
<rect x="275" y="142" width="3" height="3"/>
<rect x="278" y="142" width="3" height="3"/>
<rect x="281" y="142" width="3" height="3"/>
<rect x="284" y="142" width="3" height="3"/>
<rect x="272" y="145" width="3" height="3"/>
<rect x="272" y="148" width="3" height="3"/>
<rect x="275" y="151" width="3" height="3"/>
<rect x="278" y="151" width="3" height="3"/>
<rect x="281" y="151" width="3" height="3"/>
<rect x="284" y="154" width="3" height="3"/>
<rect x="284" y="157" width="3" height="3"/>
<rect x="272" y="160" width="3" height="3"/>
<rect x="275" y="160" width="3" height="3"/>
<rect x="278" y="160" width="3" height="3"/>
<rect x="281" y="160" width="3" height="3"/>
<rect x="291" y="142" width="3" height="3"/>
<rect x="294" y="142" width="3" height="3"/>
<rect x="297" y="142" width="3" height="3"/>
<rect x="297" y="145" width="3" height="3"/>
<rect x="297" y="148" width="3" height="3"/>
<rect x="297" y="151" width="3" height="3"/>
<rect x="297" y="154" width="3" height="3"/>
<rect x="297" y="157" width="3" height="3"/>
<rect x="291" y="160" width="3" height="3"/>
<rect x="294" y="160" width="3" height="3"/>
<rect x="297" y="160" width="3" height="3"/>
</g>
</svg>